<svg xmlns="http://www.w3.org/2000/svg" viewBox="0 0 167.47 117.86"><defs><style>.cls-1{fill:#fd5842;}.cls-2{fill:#e02f2f;}.cls-3{fill:#fd8f8f;}.cls-4{fill:#506772;}.cls-5{fill:#6c8a99;}.cls-6{fill:#939b9e;}.cls-7{fill:#b1b9be;}.cls-8{fill:#d4dde6;}.cls-9{fill:#fff;}</style></defs><title>Asset 3</title><g id="Layer_2" data-name="Layer 2"><g id="small"><g id="cockpit"><path class="cls-1" d="M70.06,68.87a18.38,18.38,0,0,0,7.56,6.43l.12.05v11.2l5.83,5.61v14.18L61.88,79.39l8-10.76Zm35.79,10.53L84.17,106.34V92.15L90,86.55V75.35l.12-.05a18.46,18.46,0,0,0,7.56-6.43l.16-.23Z"/><path class="cls-2" d="M83.07,6.64l1.06.57L81.81,8.63l1.27,2.32-.3,0c-2.46.25-4,.8-4.72,1.66a1.33,1.33,0,0,0-.32,1.13v14l.48-.36c1.19-.86,3.71-1.17,5.66-1.17s4.45.31,5.63,1.17l.48.36v-14a1.4,1.4,0,0,0-.32-1.18C89,11.78,87.42,11.22,85,11h-.11l-1-1.77,3.42-2.08L84.67,5.69V2.38l.29.14a65.51,65.51,0,0,1,15,10.34l.16.14-4,3.92.22.22c8.9,8.44,15.24,19.5,15.93,20.73l.14.25,5.1-2.12.08.17a37.72,37.72,0,0,1,3.58,10.26c.37,2.45.09,4.17-.78,4.86-2.18,1.71-5.66,2.57-10.34,2.57a48.52,48.52,0,0,1-8.38-.8l-.15,0,0-.15a22.7,22.7,0,0,0-.46-2.72l0-.15,3-1.66-3-5.21-2.05,1.37-.11-.19a19.9,19.9,0,0,0-5.52-6.44l-.12-.09,1-2.5-3.46-2.62L88,35.24l-.11,0a13.78,13.78,0,0,0-8,0l-.11,0-2.71-2.55-3.47,2.62,1,2.5-.12.09a19.87,19.87,0,0,0-5.52,6.44l-.11.19-2.05-1.37-3,5.21,3,1.66,0,.15a22.64,22.64,0,0,0-.46,2.72l0,.15-.15,0a48.51,48.51,0,0,1-8.38.8c-4.68,0-8.16-.87-10.34-2.57-.87-.69-1.15-2.41-.79-4.86a37.34,37.34,0,0,1,3.58-10.26l.08-.17,5.09,2.12.13-.23c0-.1,6.57-11.88,15.95-20.76l.22-.21-4-3.92.16-.14a65.48,65.48,0,0,1,15-10.34l.29-.14ZM95.7,42.47a21.57,21.57,0,0,1,4.37,13.19A22.47,22.47,0,0,1,99,62.58l-.06.2-3.58-1.41V42ZM72.4,61.38l-3.58,1.41-.07-.2a22.43,22.43,0,0,1-1.09-6.92A21.51,21.51,0,0,1,72,42.47L72.4,42Z"/><path class="cls-3" d="M70.76,16.91l-.15.14A99.4,99.4,0,0,0,55.16,37.22l-.09.15-4.56-1.91.1-.19A81,81,0,0,1,67.08,13.55l.14-.13Zm29.89-3.36a81,81,0,0,1,16.47,21.71l.1.19-4.56,1.91-.09-.15A97.45,97.45,0,0,0,97.11,17.05L97,16.91l3.55-3.49Z"/><path class="cls-4" d="M83.88,11.5c3.51.21,4.81.91,5.29,1.46a.81.81,0,0,1,.25.66l0,9.37-.26-.08a15.85,15.85,0,0,0-10.56,0l-.26.08,0-9.41a.81.81,0,0,1,.26-.62c.48-.55,1.78-1.25,5.29-1.46h0ZM66.08,55.19c0,.16,0,.31,0,.47A23.56,23.56,0,0,0,68.94,67l.06.11-2.75,3.7-.16-.2c-1.29-1.56-4.44-6.14-5.77-15l0-.21h.22a53.37,53.37,0,0,0,5.36-.64l.24,0Zm35.79-.45a53.39,53.39,0,0,0,5.36.64h.22l0,.21c-1.34,8.9-4.48,13.49-5.77,15l-.16.2-2.75-3.7.06-.11a23.66,23.66,0,0,0,2.88-11.38c0-.12,0-.23,0-.35s0-.25,0-.37V54.7Zm-23.26,21a14.52,14.52,0,0,0,10.52,0l.27-.1V86.29l-5.53,5.33-5.53-5.33V75.62Z"/><polygon class="cls-3" points="104.71 77.28 85.46 101.03 85.46 90.44 83.87 91.94 82.25 90.32 82.25 101.03 62.88 77.28 61.46 79.78 83.86 108.03 106.96 79.94 104.71 77.28"/><path class="cls-1" d="M89.88,16.86s14.42,10,14.75,14.5,5.5,9.42,7.5,10.58,2.5,9.62,2.5,9.62,8,.25,6.68-7.12l.82.42s1.58,7.08-2.92,8.08-13,1.85-13,1.85,1.92-11.51-2.08-14.18-3.08-5-3.75-7.25-8.08-6.83-10.5-7ZM85,7c5.58.5,13.1,7.68,13.1,7.68l2.4-2.43C99.38,10.94,84.21,1.44,84.21,1.44Z"/><path class="cls-1" d="M77.84,26.36c-2.42.17-9.83,4.75-10.5,7s.25,4.58-3.75,7.25-2.08,14.18-2.08,14.18-8.5-.85-13-1.85-2.92-8.08-2.92-8.08l.82-.42c-1.36,7.37,6.68,7.12,6.68,7.12s.5-8.45,2.5-9.62,7.17-6.08,7.5-10.58,14.75-14.5,14.75-14.5ZM83.51,1.44s-15.17,9.5-16.25,10.83l2.4,2.43S77.18,7.53,82.76,7Z"/><path class="cls-5" d="M83.86,22.63a17.67,17.67,0,0,1,5.4,1l.14,0v3.05l-.28-.12a15.7,15.7,0,0,0-10.5,0l-.28.12V23.62l.14,0A17.7,17.7,0,0,1,83.86,22.63Zm-4.77,12.8-.31.11a16.18,16.18,0,0,0-3.51,1.77l-.21.14-.76-1.93,2.7-2Zm14.33.08-.75,1.93-.21-.14A16.51,16.51,0,0,0,89,35.54l-.31-.11,2.08-2Zm9.7,12.63-2.27,1.27-.07-.25a23.21,23.21,0,0,0-1.51-3.95l-.08-.16,1.56-1ZM68.53,45.06l-.08.16A23.23,23.23,0,0,0,67,49.16l-.07.25-2.27-1.27L67,44Z"/><rect class="cls-5" x="86.3" y="11.78" width="1.85" height="10.85"/><rect class="cls-5" x="79.55" y="11.78" width="2.83" height="10.85"/><path class="cls-5" d="M100.38,70.23s4.07-5.25,5.47-15.75h-1.6s-1.37,11.12-5.12,14.15Z"/><path class="cls-5" d="M67.45,70.23S63.38,65,62,54.48h1.6S64.95,65.6,68.7,68.64Z"/><polygon class="cls-5" points="86.6 75.61 86.6 85.36 83.88 88.09 81.13 85.34 81.13 75.61 86.6 75.61"/><path class="cls-6" d="M83.87,36.22a15,15,0,0,1,10.82,5.06l.05.06V61.78l4,1.57-.07.19c-2.6,6.95-8.4,11.49-14.79,11.57C77.49,75,71.68,70.49,69.08,63.54L69,63.36l4-1.57V41.34l.05-.06A15,15,0,0,1,83.87,36.22Z"/><path class="cls-7" d="M83.88,39.22a11.8,11.8,0,0,1,7.86,3.35V63.83L94.69,65c-2.45,4.35-6.5,7.07-10.85,7.12S75.5,69.34,73.05,65L76,63.83V42.58A11.81,11.81,0,0,1,83.88,39.22Z"/><path class="cls-8" d="M83.86,72.11C88.2,72,92.24,69.32,94.69,65l-2.95-1.16V42.57a11.8,11.8,0,0,0-7.86-3.35h0Z"/><path id="lineart" d="M46.25,52.7c-1.44-1.13-1.93-3.33-1.45-6.53C46.47,35.06,61.22,10.21,83.87,0c22.65,10.21,37.4,35.06,39.06,46.17.48,3.2,0,5.4-1.44,6.53-3.15,2.46-8,3-12.26,3-1.46,10-5,14.86-6.51,16.52l5.41,7.26L83.87,109.58,59.6,79.44,65,72.18c-1.49-1.66-5.06-6.55-6.51-16.52C54.26,55.73,49.39,55.16,46.25,52.7Zm.53-6.24c-.35,2.34-.09,4,.71,4.67,5,3.93,15.87,2.24,18.56,1.74a22.85,22.85,0,0,1,.47-2.75l-3-1.68,3.18-5.57,2,1.37a19.94,19.94,0,0,1,5.58-6.5l-1-2.5,3.72-2.81L79.82,35a14,14,0,0,1,8.1,0l2.75-2.59,3.72,2.81-1,2.5A19.94,19.94,0,0,1,99,44.24L101,42.87l3.18,5.57-3,1.68a23,23,0,0,1,.47,2.75c2.69.5,13.54,2.19,18.56-1.74.8-.63,1.06-2.33.71-4.67a37.73,37.73,0,0,0-3.56-10.2l-5.09,2.12L112.1,38c-.07-.12-6.58-11.87-15.91-20.71l-.37-.36,4-3.91A65.45,65.45,0,0,0,84.87,2.7V5.57l2.89,1.54L84.2,9.27,85,10.78c2.48.25,4.1.83,4.82,1.73a1.57,1.57,0,0,1,.36,1.3V28.2l-.8-.6c-2.09-1.52-9-1.5-11.06,0l-.8.6V13.81a1.53,1.53,0,0,1,.36-1.3c.72-.91,2.35-1.48,4.86-1.73L81.54,8.56l2.19-1.34-.86-.46V2.7A65.43,65.43,0,0,0,67.95,13l4,3.91-.37.36C62.21,26.12,55.7,37.87,55.64,38l-.22.39-5.08-2.12A37.32,37.32,0,0,0,46.78,46.46Zm4-11.1L55,37.12A98.61,98.61,0,0,1,70.48,16.91L67.22,13.7A81.06,81.06,0,0,0,50.79,35.36Zm11.34,44,21.24,26.38V92.24l-5.83-5.61V75.48A18.58,18.58,0,0,1,69.9,69ZM60.52,55.58c1.31,8.73,4.33,13.26,5.73,14.95l2.52-3.39a23.73,23.73,0,0,1-2.9-11.48c0-.24,0-.48,0-.72A53,53,0,0,1,60.52,55.58ZM67,44.3l-2.15,3.76,1.87,1a23.37,23.37,0,0,1,1.52-4Zm.83,11.36a22.23,22.23,0,0,0,1.08,6.86l3.25-1.28V42.59A21.28,21.28,0,0,0,67.87,55.66Zm5.33,6.26-3.93,1.55c2.5,6.68,8.09,11.36,14.6,11.44,6.51-.08,12.1-4.76,14.6-11.44l-3.93-1.55V41.42a14.81,14.81,0,0,0-10.67-5,14.77,14.77,0,0,0-10.67,5Zm1.36-26.34.61,1.56a16.5,16.5,0,0,1,3.55-1.79L77,33.73Zm4.16-22.49a.63.63,0,0,0-.21.49l0,9.14a16,16,0,0,1,10.68,0l0-9.14a.63.63,0,0,0-.21-.49c-.38-.44-1.56-1.18-5.15-1.39C80.27,11.91,79.1,12.65,78.72,13.09Zm-.19,10.68v2.6a15.88,15.88,0,0,1,10.66,0v-2.6A15.63,15.63,0,0,0,78.53,23.77Zm0,52.14V86.2l5.33,5.14L89.2,86.2V75.91a14.7,14.7,0,0,1-10.66,0Zm5.83,16.33v13.53L105.6,79.39,97.84,69a18.65,18.65,0,0,1-7.64,6.5V86.63Zm6.37-58.51L89,35.35a16.68,16.68,0,0,1,3.55,1.79l.61-1.56Zm4.8,8.86V61.24l3.25,1.28a22.26,22.26,0,0,0,1.08-6.86A21.34,21.34,0,0,0,95.54,42.59Zm5-28.89-3.27,3.21a98.35,98.35,0,0,1,15.5,20.21l4.2-1.76A81.08,81.08,0,0,0,100.52,13.7ZM99,67.14l2.52,3.39c1.4-1.69,4.42-6.22,5.73-14.95a53.06,53.06,0,0,1-5.38-.64c0,.24,0,.48,0,.72A23.84,23.84,0,0,1,99,67.14ZM100.7,44.3l-1.24.83a23.55,23.55,0,0,1,1.52,4l1.87-1Z"/></g><g id="weapon"><g id="colors"><path class="cls-1" d="M99.31,29.85A38.76,38.76,0,0,1,103.72,35l.08.12-6.5,8.71V76.63L91,70.36v-24h1.5V37.28l6.62-7.58ZM74.94,37.28v9.13h1.5v24l-6.28,6.27V43.85l-6.5-8.71.08-.12a38,38,0,0,1,4.42-5.18l.15-.15Zm14.5,8.63v1.4H78v-1.4Zm7.87,31.58v8.3L91,89.57V71.22ZM76.44,89.57l-6.28-3.79v-8.3l6.28-6.27Z"/><path class="cls-2" d="M104.9,36.82a27.32,27.32,0,0,1,2.93,6.83l0,.09-3.42,4.64V62h4.7l0,.21c-.71,9.12-7.2,11.52-10,12.13l-.24.05V44.38l5.84-7.82ZM68.56,44.38V74.44l-.24-.05c-2.76-.61-9.25-3-10-12.13l0-.21H63V48.38l-3.43-4.64,0-.09a27.44,27.44,0,0,1,2.94-6.83l.15-.25Zm20.88,3.53V59.19H78V47.91Z"/><path class="cls-4" d="M75.94,25.16V28h.6V25.16h3.15V28h.6V25.16h6.9V28h.6V25.16h3.15V28h.6V25.16H94l.05,0c1.62,1.27,3.11,2.56,4.57,3.94l.14.13L92,36.94H75.44l-6.7-7.66.14-.13c1.46-1.38,3-2.67,4.57-3.94l.05,0Zm15,13.38v6.27h-1.5v.5H78v-.5h-1.5V38.54Zm-28.5,10V61.44H58.3l0-2c0-5.36,0-10,1-14.52l.1-.43Zm45.71-3.68c1,4.49,1,9.06,1,14.36v1.34c0,.22,0,.43,0,.64v.19H105V48.58l3-4.1ZM89.44,59.79v41.77H86.69v.6h2.75v2.28H86.69v.6h2.75v3.4H78V105h2.75v-.6H78v-2.28h2.75v-.6H78V59.79ZM92.17,110a3,3,0,1,1,0,6H75.3a3,3,0,1,1,0-6Z"/><path class="cls-5" d="M72.21,114.67a2.37,2.37,0,0,1,2.37-2.37H92.49a2.37,2.37,0,0,1,0,4.74H74.58A2.37,2.37,0,0,1,72.21,114.67ZM84,106.43a1.62,1.62,0,0,0,1.62-1.62V59.64H82.34V104.8A1.63,1.63,0,0,0,84,106.43Zm1.62-68.5H82.34v8h3.25ZM109.9,62.11c1.43-3-1-18.11-1-18.11l-1.55,1.55V61.86h2.56Zm-52.2,0v-.25h2.56V45.55L58.72,44S56.27,59.16,57.7,62.11Z"/><polygon class="cls-5" points="94.15 24.89 93.89 25.36 91.74 28.24 75.74 28.24 73.58 25.36 73.24 24.71 94.15 24.89"/><rect class="cls-5" x="81.42" y="30.17" width="4.76" height="4.76"/><rect class="cls-5" x="87.84" y="31.21" width="2.67" height="2.68"/><rect class="cls-5" x="76.96" y="31.21" width="2.67" height="2.68"/><circle class="cls-3" cx="102.71" cy="68.18" r="1.79"/><circle class="cls-3" cx="64.76" cy="68.18" r="1.79"/><rect class="cls-3" x="82.17" y="47.8" width="3.42" height="11.84"/></g><path id="lineart-2" data-name="lineart" d="M56.48,59.42v1.19c0,12.19,8.94,15,11.87,15.6V86.8l7.88,4.75v16.69H75.3a4.81,4.81,0,1,0,0,9.62H92.17a4.81,4.81,0,1,0,0-9.62h-.93V91.55l7.87-4.75V76.21C102,75.62,111,72.8,111,60.61V59.42c0-13,0-23.29-16.14-35.85l-.27-.21H72.89l-.27.21C56.46,36.13,56.47,46.41,56.48,59.42ZM70.36,85.67v-8.1l5.88-5.87V89.22Zm21.81,24.57a2.81,2.81,0,1,1,0,5.62H75.3a2.81,2.81,0,1,1,0-5.62H92.17Zm-2.93-7.88v1.88H86.49v1h2.75v3h-11v-3H81v-1H78.24v-1.88H81v-1H78.24V60h11v41.37H86.49v1ZM78.24,59V48.11h11V59Zm5.5-11.88h-5.5v-1h11v1Zm0-2h-5.5v-.5h-1.5V38.74h14v5.87h-1.5v.5ZM97.11,85.67l-5.87,3.55V71.7l5.87,5.87ZM109,59.42v1.19c0,.22,0,.42,0,.63h-3.73V48.65L108,45C109,49.46,109,54.14,109,59.42ZM107.64,43.7l-3.4,4.62V62.24h4.68c-.7,9-7.18,11.37-9.81,11.95V44.45l5.62-7.53A27.24,27.24,0,0,1,107.64,43.7Zm-4.08-8.56-6.45,8.64V76.15l-5.87-5.87V46.61h1.5V37.35L99.17,30A38.74,38.74,0,0,1,103.56,35.14Zm-30-9.78h2.16v2.88h1V25.36h2.75v2.88h1V25.36H87v2.88h1V25.36h2.75v2.88h1V25.36h2.15C95.6,26.7,97.1,28,98.45,29.29l-6.51,7.45H75.53L69,29.29C70.37,28,71.87,26.7,73.58,25.36ZM68.31,30l6.43,7.36v9.26h1.5V70.28l-5.88,5.87V43.78l-6.45-8.64A38.15,38.15,0,0,1,68.31,30Zm-5.56,6.93,5.61,7.53V74.19c-2.63-.58-9.1-2.93-9.81-11.95h4.69V48.32L59.83,43.7A27.13,27.13,0,0,1,62.75,36.92Zm-3.24,8,2.73,3.7V61.24H58.5c0-.21,0-.41,0-.63V59.42C58.48,54.14,58.48,49.46,59.51,45Z"/></g><g id="weapon-2" data-name="weapon"><g id="colors-2" data-name="colors"><path class="cls-4" d="M132,40.87v4.2h-2.15v-6.2Zm10,4.2h-2.15v-4.2l2.15-2Z"/><path class="cls-2" d="M140.13,14.68l-1.49,2.44,3.37,1.4v4h-2.25v.6H142v1.9h-2.87v.6H142v9H129.86v-9h2.88v-.6h-2.88v-1.9h2.25v-.6h-2.25v-4l3.37-1.4-1.49-2.44,4.2-3.36Zm1,70.49.91.91V87l-6.07,8.37L129.86,87v-.91l.91-.91Z"/><polygon class="cls-1" points="142.01 35.29 142.01 38.04 139.26 40.61 139.26 45.66 142.01 45.66 142.01 83.29 140.73 84.56 131.15 84.56 129.86 83.29 129.86 45.66 132.61 45.66 132.61 40.61 129.86 38.04 129.86 35.29 142.01 35.29"/><path class="cls-5" d="M128.26,21.63v10.8l-5.09-5.09V16.55Zm20.44,5.71-5.09,5.09V21.63l5.09-5.08ZM128.26,62.1V72.3l-1.84-1.83V60.21Zm17.19,8.38-1.84,1.83V62.1l1.84-1.89Z"/><rect class="cls-3" x="133.8" y="34.91" width="4.12" height="49.82"/><polygon class="cls-1" points="133.21 84.87 138.47 84.87 137.24 95.86 134.43 95.86 133.21 84.87"/><rect class="cls-1" x="133.8" y="17.19" width="4.12" height="17.5"/><polygon class="cls-1" points="135.16 13.43 136.57 13.43 137.18 16.06 134.56 16.06 135.16 13.43"/></g><path id="lineart-3" data-name="lineart" d="M128.06,34.78V59.31l-3.44-3.53V71.21l3.44,3.44V84l.65.64-.65.65v2.24l7.88,10.86,7.87-10.86V85.32l-.65-.65.65-.64V74.65l3.44-3.44V55.78l-3.44,3.53V34.78l6.69-6.69V12.2l-6.69,6.69V17.32l-2.54-1.06,1.23-2L135.94,9l-6.57,5.25,1.23,2-2.54,1.06v1.57l-6.69-6.69V28.09Zm0,37-1.44-1.43V60.7l1.44,1.48Zm15.75-50.11L148.5,17V27.26L143.81,32Zm0,40.47,1.44-1.48v9.69l-1.44,1.43Zm-2-17.32h-1.75V41l1.75-1.63Zm-11.75-19h2.88v-1h-2.88v-1.5h2.25v-1h-2.25V18.65l3.46-1.44L132,14.72l3.94-3.15,3.93,3.15-1.52,2.49,3.46,1.44v3.71h-2.25v1h2.25v1.5h-2.87v1h2.87v8.63H130.06Zm0,13.46L131.81,41v3.91h-1.75Zm0,6.54h2.75V40.52L130.06,38V35.49h11.75V38l-2.75,2.57v5.34h2.75V83.2l-1.16,1.16h-9.42l-1.17-1.16Zm0,40.29.79-.79H141l.79.79v.76L135.94,95l-5.88-8.1ZM123.37,17l4.69,4.68V32l-4.69-4.69Z"/></g><g id="square"><g id="colors-3" data-name="colors"><path class="cls-4" d="M106,41.17H134.6V69.82H106Zm2.9,25.75H131.7V44.07H108.85Z"/><rect class="cls-1" x="109.45" y="44.67" width="21.65" height="21.65"/><polygon class="cls-5" points="135.22 70.45 131.4 66.63 131.4 44.64 135.22 40.49 135.22 70.45"/><polygon class="cls-5" points="105.4 70.45 106.15 69.62 108.65 67.12 108.95 56.96 108.65 43.87 105.95 41.17 105.4 70.45"/><polygon class="cls-9" points="123.49 55.47 119.86 51.84 121.68 50.02 127.13 55.47 121.68 60.92 119.86 59.1 123.49 55.47"/><polygon class="cls-9" points="117.15 55.47 113.52 51.84 115.34 50.02 120.79 55.47 115.34 60.92 113.52 59.1 117.15 55.47"/></g><path id="lineart-4" data-name="lineart" d="M108.65,43.87V67.12H131.9V43.87Zm22.25,1V66.12H109.65V44.87Zm5.5-5.5H104.15V71.62H136.4Zm-2,2V69.62H106.15V41.37Z"/></g><g id="corner"><g id="colors-4" data-name="colors"><polygon class="cls-5" points="137.02 41.17 137.02 68.7 139.92 65.8 139.92 44.07 161.64 44.07 164.54 41.17 137.02 41.17"/><polygon class="cls-1" points="140.52 44.67 140.52 65.2 161.04 44.67 140.52 44.67"/><polygon class="cls-3" points="142.52 46.67 142.52 60.37 156.21 46.67 142.52 46.67"/></g><path id="lineart-5" data-name="lineart" d="M140.72,64.71l19.84-19.84H140.72Zm-3.5-23.34V68.21l2.5-2.5V43.88h21.84l2.5-2.5Zm-2,30.25V39.38h32.25v1.41L136.63,71.63Z"/></g><g id="weapon-3" data-name="weapon"><g id="colors-5" data-name="colors"><path class="cls-4" d="M37.61,38.86v6.2H35.46v-4.2Zm-12.15,0,2.15,2v4.2H25.46Z"/><path class="cls-2" d="M31.53,11.32l4.2,3.36-1.49,2.44,3.37,1.4v4H35.36v.6h2.25v1.9H34.73v.6h2.88v9H25.46v-9h2.87v-.6H25.46v-1.9h2.25v-.6H25.46v-4l3.37-1.4-1.49-2.44ZM36.7,85.16l.91.91V87l-6.08,8.38L25.46,87v-.91l.91-.91Z"/><polygon class="cls-1" points="25.46 35.29 25.46 38.04 28.21 40.61 28.21 45.66 25.46 45.66 25.46 83.29 26.73 84.56 36.32 84.56 37.61 83.29 37.61 45.66 34.86 45.66 34.86 40.61 37.61 38.04 37.61 35.29 25.46 35.29"/><path class="cls-5" d="M44.3,16.55V27.35l-5.09,5.09V21.63Zm-25.53,0,5.09,5.08v10.8l-5.09-5.09ZM41,60.21V70.48L39.21,72.3V62.1Zm-19,0,1.84,1.89V72.3L22,70.48Z"/><rect class="cls-3" x="29.54" y="34.91" width="4.12" height="49.82"/><polygon class="cls-1" points="34.26 84.87 29 84.87 30.22 95.86 33.04 95.86 34.26 84.87"/><rect class="cls-1" x="29.54" y="17.19" width="4.12" height="17.5"/><polygon class="cls-1" points="32.31 13.43 30.89 13.43 30.29 16.06 32.91 16.06 32.31 13.43"/></g><path id="lineart-6" data-name="lineart" d="M46.1,28.09V12.2l-6.69,6.69V17.32l-2.54-1.06,1.23-2L31.53,9,25,14.26l1.23,2-2.54,1.06v1.57L17,12.2V28.09l6.69,6.69V59.31l-3.44-3.53V71.21l3.44,3.44V84l.65.64-.65.65v2.24l7.87,10.86,7.88-10.86V85.32l-.65-.65.65-.64V74.65l3.44-3.44V55.78l-3.44,3.53V34.78ZM39.41,62.18l1.44-1.48v9.69l-1.44,1.43ZM23.66,32,19,27.26V17l4.69,4.68Zm0,39.87-1.44-1.43V60.7l1.44,1.48Zm2-32.5L27.41,41v3.91H25.66Zm11.75-4.83H25.66V25.86h2.87v-1H25.66v-1.5h2.25v-1H25.66V18.65l3.46-1.44L27.6,14.72l3.93-3.15,3.94,3.15-1.52,2.49,3.46,1.44v3.71H35.16v1h2.25v1.5H34.53v1h2.88Zm0,10.37H35.66V41l1.75-1.63Zm0,38.34-1.17,1.16H26.82L25.66,83.2V45.86h2.75V40.52L25.66,38V35.49H37.41V38l-2.75,2.57v5.34h2.75Zm0,3.71L31.53,95l-5.87-8.1v-.76l.79-.79H36.62l.79.79ZM44.1,27.26,39.41,32V21.71L44.1,17Z"/></g><g id="square-2" data-name="square"><g id="colors-6" data-name="colors"><path class="cls-4" d="M61.51,69.82H32.86V41.17H61.51Zm-2.9-25.75H35.76V66.92H58.61Z"/><rect class="cls-1" x="36.36" y="44.67" width="21.65" height="21.65"/><polygon class="cls-5" points="32.25 70.45 36.06 66.63 36.06 44.64 32.25 40.49 32.25 70.45"/><polygon class="cls-5" points="62.06 70.45 61.31 69.62 58.81 67.12 58.52 56.96 58.81 43.87 61.51 41.17 62.06 70.45"/><polygon class="cls-9" points="43.98 55.47 47.61 51.84 45.79 50.02 40.34 55.47 45.79 60.92 47.61 59.1 43.98 55.47"/><polygon class="cls-9" points="50.32 55.47 53.95 51.84 52.13 50.02 46.68 55.47 52.13 60.92 53.95 59.1 50.32 55.47"/></g><path id="lineart-7" data-name="lineart" d="M35.56,43.87V67.12H58.81V43.87Zm22.25,1V66.12H36.56V44.87ZM31.06,71.62H63.31V39.37H31.06ZM61.31,41.37V69.62H33.06V41.37Z"/></g><g id="corner-2" data-name="corner"><g id="colors-7" data-name="colors"><polygon class="cls-5" points="30.45 41.17 30.45 68.7 27.55 65.8 27.55 44.07 5.83 44.07 2.93 41.17 30.45 41.17"/><polygon class="cls-1" points="26.95 44.67 26.95 65.2 6.43 44.67 26.95 44.67"/><polygon class="cls-3" points="24.95 46.67 24.95 60.37 11.26 46.67 24.95 46.67"/></g><path id="lineart-8" data-name="lineart" d="M26.75,44.87H6.91L26.75,64.71ZM3.41,41.37l2.5,2.5H27.75V65.71l2.5,2.5V41.38ZM30.84,71.63,0,40.79V39.37H32.25V71.63Z"/></g></g></g></svg>