<svg xmlns="http://www.w3.org/2000/svg" viewBox="0 0 200 85.69"><defs><style>.cls-1{fill:#742c2d;}.cls-2{fill:#b8c5d4;}.cls-3{fill:#a31e21;}.cls-4{fill:#010101;}.cls-5{fill:#86888c;}.cls-6{fill:#f9f5d8;}.cls-7{fill:#e1e9f5;}</style></defs><title>Asset 2</title><g id="Layer_2" data-name="Layer 2"><g id="Layer_1-2" data-name="Layer 1"><g id="square"><g id="colors"><path class="cls-1" d="M115.88,27V1.59h25.38V27Zm22.81-2.57V4.16H118.45V24.41Z"/><rect class="cls-2" x="118.98" y="4.7" width="19.18" height="19.18"/><polygon class="cls-3" points="115.33 1.05 118.72 4.43 138.19 4.43 141.87 1.05 115.33 1.05"/><polygon class="cls-3" points="115.33 27.46 116.06 26.8 118.27 24.59 127.28 24.33 138.87 24.59 141.26 26.98 115.33 27.46"/></g><path id="lineart" class="cls-4" d="M138.87,4h-20.6v20.6h20.6ZM138,23.7H119.16V4.87H138ZM114.29,0V28.57h28.57V0Zm26.8,26.8h-25v-25h25Z"/></g><g id="square-2" data-name="square"><g id="colors-2" data-name="colors"><path class="cls-1" d="M87.31,27V1.59h25.38V27Zm22.81-2.57V4.16H89.88V24.41Z"/><rect class="cls-2" x="90.41" y="4.7" width="19.18" height="19.18"/><polygon class="cls-3" points="86.76 1.05 90.14 4.43 109.62 4.43 113.3 1.05 86.76 1.05"/><polygon class="cls-3" points="86.76 27.46 87.49 26.8 89.7 24.59 98.71 24.33 110.3 24.59 112.69 26.98 86.76 27.46"/></g><path id="lineart-2" data-name="lineart" class="cls-4" d="M110.3,4H89.7v20.6h20.6Zm-.89,19.71H90.59V4.87h18.83ZM85.71,0V28.57h28.57V0Zm26.8,26.8h-25v-25h25Z"/></g><g id="square-3" data-name="square"><g id="colors-3" data-name="colors"><path class="cls-1" d="M58.74,27V1.59H84.12V27Zm22.81-2.57V4.16H61.31V24.41Z"/><rect class="cls-2" x="61.84" y="4.7" width="19.18" height="19.18"/><polygon class="cls-3" points="58.19 1.05 61.57 4.43 81.05 4.43 84.73 1.05 58.19 1.05"/><polygon class="cls-3" points="58.19 27.46 58.91 26.8 61.13 24.59 70.14 24.33 81.73 24.59 84.12 26.98 58.19 27.46"/></g><path id="lineart-3" data-name="lineart" class="cls-4" d="M81.73,4H61.13v20.6h20.6ZM80.84,23.7H62V4.87H80.84ZM57.14,0V28.57H85.71V0Zm26.8,26.8h-25v-25h25Z"/></g><g id="square-4" data-name="square"><g id="colors-4" data-name="colors"><path class="cls-1" d="M30.17,27V1.59H55.55V27ZM53,24.41V4.16H32.74V24.41Z"/><rect class="cls-2" x="33.27" y="4.7" width="19.18" height="19.18"/><polygon class="cls-3" points="29.61 1.05 33 4.43 52.48 4.43 56.16 1.05 29.61 1.05"/><polygon class="cls-3" points="29.61 27.46 30.34 26.8 32.56 24.59 41.56 24.33 53.16 24.59 55.55 26.98 29.61 27.46"/></g><path id="lineart-4" data-name="lineart" class="cls-4" d="M53.16,4H32.56v20.6h20.6ZM52.27,23.7H33.44V4.87H52.27ZM28.57,0V28.57H57.14V0Zm26.8,26.8h-25v-25h25Z"/></g><g id="square-5" data-name="square"><g id="colors-5" data-name="colors"><path class="cls-1" d="M1.59,27V1.59H27V27Zm22.81-2.57V4.16H4.16V24.41Z"/><rect class="cls-2" x="4.7" y="4.7" width="19.18" height="19.18"/><polygon class="cls-3" points="1.04 1.05 4.43 4.43 23.91 4.43 27.59 1.05 1.04 1.05"/><polygon class="cls-3" points="1.04 27.46 1.77 26.8 3.99 24.59 12.99 24.33 24.59 24.59 26.98 26.98 1.04 27.46"/></g><path id="lineart-5" data-name="lineart" class="cls-4" d="M24.58,4H4v20.6h20.6ZM23.7,23.7H4.87V4.87H23.7ZM0,0V28.57H28.57V0ZM26.8,26.8h-25v-25h25Z"/></g><g id="square-6" data-name="square"><g id="colors-6" data-name="colors"><path class="cls-1" d="M115.88,55.52V30.14h25.38V55.52ZM138.69,53V32.71H118.45V53Z"/><rect class="cls-2" x="118.98" y="33.24" width="19.18" height="19.18"/><polygon class="cls-3" points="115.33 29.6 118.72 32.97 138.19 32.97 141.87 29.6 115.33 29.6"/><polygon class="cls-3" points="115.33 56.01 116.06 55.34 118.27 53.13 127.28 52.87 138.87 53.13 141.26 55.52 115.33 56.01"/></g><path id="lineart-6" data-name="lineart" class="cls-4" d="M138.87,32.53h-20.6v20.6h20.6ZM138,52.24H119.16V33.42H138Zm-23.7-23.7V57.12h28.57V28.54Zm26.8,26.8h-25v-25h25Z"/></g><g id="square-7" data-name="square"><g id="colors-7" data-name="colors"><path class="cls-1" d="M87.31,55.52V30.14h25.38V55.52ZM110.12,53V32.71H89.88V53Z"/><rect class="cls-2" x="90.41" y="33.24" width="19.18" height="19.18"/><polygon class="cls-3" points="86.76 29.6 90.14 32.97 109.62 32.97 113.3 29.6 86.76 29.6"/><polygon class="cls-3" points="86.76 56.01 87.49 55.34 89.7 53.13 98.71 52.87 110.3 53.13 112.69 55.52 86.76 56.01"/></g><path id="lineart-7" data-name="lineart" class="cls-4" d="M110.3,32.53H89.7v20.6h20.6Zm-.89,19.71H90.59V33.42h18.83Zm-23.7-23.7V57.12h28.57V28.54Zm26.8,26.8h-25v-25h25Z"/></g><g id="square-8" data-name="square"><g id="colors-8" data-name="colors"><path class="cls-1" d="M58.74,55.52V30.14H84.12V55.52ZM81.55,53V32.71H61.31V53Z"/><rect class="cls-2" x="61.84" y="33.24" width="19.18" height="19.18"/><polygon class="cls-3" points="58.19 29.6 61.57 32.97 81.05 32.97 84.73 29.6 58.19 29.6"/><polygon class="cls-3" points="58.19 56.01 58.91 55.34 61.13 53.13 70.14 52.87 81.73 53.13 84.12 55.52 58.19 56.01"/></g><path id="lineart-8" data-name="lineart" class="cls-4" d="M81.73,32.53H61.13v20.6h20.6Zm-.89,19.71H62V33.42H80.84Zm-23.7-23.7V57.12H85.71V28.54Zm26.8,26.8h-25v-25h25Z"/></g><g id="square-9" data-name="square"><g id="colors-9" data-name="colors"><path class="cls-1" d="M30.17,55.52V30.14H55.55V55.52ZM53,53V32.71H32.74V53Z"/><rect class="cls-2" x="33.27" y="33.24" width="19.18" height="19.18"/><polygon class="cls-3" points="29.61 29.6 33 32.97 52.48 32.97 56.16 29.6 29.61 29.6"/><polygon class="cls-3" points="29.61 56.01 30.34 55.34 32.56 53.13 41.56 52.87 53.16 53.13 55.55 55.52 29.61 56.01"/></g><path id="lineart-9" data-name="lineart" class="cls-4" d="M53.16,32.53H32.56v20.6h20.6Zm-.89,19.71H33.44V33.42H52.27Zm-23.7-23.7V57.12H57.14V28.54Zm26.8,26.8h-25v-25h25Z"/></g><g id="square-10" data-name="square"><g id="colors-10" data-name="colors"><path class="cls-1" d="M1.59,55.52V30.14H27V55.52ZM24.41,53V32.71H4.16V53Z"/><rect class="cls-2" x="4.7" y="33.24" width="19.18" height="19.18"/><polygon class="cls-3" points="1.04 29.6 4.43 32.97 23.91 32.97 27.59 29.6 1.04 29.6"/><polygon class="cls-3" points="1.04 56.01 1.77 55.34 3.99 53.13 12.99 52.87 24.59 53.13 26.98 55.52 1.04 56.01"/></g><path id="lineart-10" data-name="lineart" class="cls-4" d="M24.58,32.53H4v20.6h20.6ZM23.7,52.24H4.87V33.42H23.7ZM0,28.54V57.12H28.57V28.54Zm26.8,26.8h-25v-25h25Z"/></g><g id="square-11" data-name="square"><g id="colors-11" data-name="colors"><path class="cls-1" d="M115.88,84.09V58.71h25.38V84.09Zm22.81-2.57V61.28H118.45V81.52Z"/><rect class="cls-2" x="118.98" y="61.81" width="19.18" height="19.18"/><polygon class="cls-3" points="115.33 58.17 118.72 61.55 138.19 61.55 141.87 58.17 115.33 58.17"/><polygon class="cls-3" points="115.33 84.58 116.06 83.92 118.27 81.7 127.28 81.44 138.87 81.7 141.26 84.09 115.33 84.58"/></g><path id="lineart-11" data-name="lineart" class="cls-4" d="M138.87,61.1h-20.6V81.7h20.6ZM138,80.81H119.16V62H138Zm-23.7-23.7V85.69h28.57V57.12Zm26.8,26.8h-25v-25h25Z"/></g><g id="square-12" data-name="square"><g id="colors-12" data-name="colors"><path class="cls-1" d="M87.31,84.09V58.71h25.38V84.09Zm22.81-2.57V61.28H89.88V81.52Z"/><rect class="cls-2" x="90.41" y="61.81" width="19.18" height="19.18"/><polygon class="cls-3" points="86.76 58.17 90.14 61.55 109.62 61.55 113.3 58.17 86.76 58.17"/><polygon class="cls-3" points="86.76 84.58 87.49 83.92 89.7 81.7 98.71 81.44 110.3 81.7 112.69 84.09 86.76 84.58"/></g><path id="lineart-12" data-name="lineart" class="cls-4" d="M110.3,61.1H89.7V81.7h20.6Zm-.89,19.71H90.59V62h18.83Zm-23.7-23.7V85.69h28.57V57.12Zm26.8,26.8h-25v-25h25Z"/></g><g id="square-13" data-name="square"><g id="colors-13" data-name="colors"><path class="cls-1" d="M58.74,84.09V58.71H84.12V84.09Zm22.81-2.57V61.28H61.31V81.52Z"/><rect class="cls-2" x="61.84" y="61.81" width="19.18" height="19.18"/><polygon class="cls-3" points="58.19 58.17 61.57 61.55 81.05 61.55 84.73 58.17 58.19 58.17"/><polygon class="cls-3" points="58.19 84.58 58.91 83.92 61.13 81.7 70.14 81.44 81.73 81.7 84.12 84.09 58.19 84.58"/></g><path id="lineart-13" data-name="lineart" class="cls-4" d="M81.73,61.1H61.13V81.7h20.6Zm-.89,19.71H62V62H80.84Zm-23.7-23.7V85.69H85.71V57.12Zm26.8,26.8h-25v-25h25Z"/></g><g id="square-14" data-name="square"><g id="colors-14" data-name="colors"><path class="cls-1" d="M30.17,84.09V58.71H55.55V84.09ZM53,81.52V61.28H32.74V81.52Z"/><rect class="cls-2" x="33.27" y="61.81" width="19.18" height="19.18"/><polygon class="cls-3" points="29.61 58.17 33 61.55 52.48 61.55 56.16 58.17 29.61 58.17"/><polygon class="cls-3" points="29.61 84.58 30.34 83.92 32.56 81.7 41.56 81.44 53.16 81.7 55.55 84.09 29.61 84.58"/></g><path id="lineart-14" data-name="lineart" class="cls-4" d="M53.16,61.1H32.56V81.7h20.6Zm-.89,19.71H33.44V62H52.27Zm-23.7-23.7V85.69H57.14V57.12Zm26.8,26.8h-25v-25h25Z"/></g><g id="square-15" data-name="square"><g id="colors-15" data-name="colors"><path class="cls-1" d="M1.59,84.09V58.71H27V84.09Zm22.81-2.57V61.28H4.16V81.52Z"/><rect class="cls-2" x="4.7" y="61.81" width="19.18" height="19.18"/><polygon class="cls-3" points="1.04 58.17 4.43 61.55 23.91 61.55 27.59 58.17 1.04 58.17"/><polygon class="cls-3" points="1.04 84.58 1.77 83.92 3.99 81.7 12.99 81.44 24.59 81.7 26.98 84.09 1.04 84.58"/></g><path id="lineart-15" data-name="lineart" class="cls-4" d="M24.58,61.1H4V81.7h20.6ZM23.7,80.81H4.87V62H23.7ZM0,57.12V85.69H28.57V57.12Zm26.8,26.8h-25v-25h25Z"/></g><g id="square-16" data-name="square"><g id="colors-16" data-name="colors"><path class="cls-5" d="M87.41,55.52,90,53h19.49L112,55.52Zm22.43-2.95V33.09l2.57-2.57V55.14ZM87,30.52l2.57,2.57V52.57L87,55.14ZM90,32.71l-2.57-2.57H112l-2.57,2.57Z"/><path class="cls-2" d="M90.13,52.42V33.24h19.18V52.42Zm9.59-16.27a6.68,6.68,0,1,0,6.68,6.68A6.68,6.68,0,0,0,99.72,36.15Z"/><circle class="cls-6" cx="99.72" cy="42.83" r="6.14"/></g><path id="lineart-16" data-name="lineart" class="cls-4" d="M99.72,49.68a6.85,6.85,0,1,0-6.85-6.85A6.86,6.86,0,0,0,99.72,49.68Zm0-12.82a6,6,0,1,1-6,6A6,6,0,0,1,99.72,36.86ZM85.44,28.54V57.12H114V28.54Zm26.17,1.77-2.21,2.21H90.05l-2.21-2.21Zm-2.47,3.1V52.24H90.31V33.42ZM87.21,30.94l2.21,2.21V52.5l-2.21,2.21Zm.63,24.4,2.21-2.21h19.34l2.21,2.21Zm24.4-.63L110,52.5V33.16l2.21-2.21Z"/></g><g id="square-17" data-name="square"><g id="colors-17" data-name="colors"><path class="cls-5" d="M30.57,55.52,33.14,53H52.63l2.57,2.57ZM53,52.57V33.09l2.57-2.57V55.14ZM30.19,30.52l2.57,2.57V52.57l-2.57,2.57Zm2.95,2.19-2.57-2.57H55.2l-2.57,2.57Z"/><path class="cls-2" d="M33.29,52.42V33.24H52.48V52.42Zm9.59-16.27a6.68,6.68,0,1,0,6.68,6.68A6.68,6.68,0,0,0,42.88,36.15Z"/><circle class="cls-6" cx="42.88" cy="42.83" r="6.14"/></g><path id="lineart-17" data-name="lineart" class="cls-4" d="M42.88,49.68A6.85,6.85,0,1,0,36,42.83,6.86,6.86,0,0,0,42.88,49.68Zm0-12.82a6,6,0,1,1-6,6A6,6,0,0,1,42.88,36.86ZM28.6,28.54V57.12H57.17V28.54Zm26.17,1.77-2.21,2.21H33.21L31,30.32Zm-2.47,3.1V52.24H33.47V33.42ZM30.37,30.94l2.21,2.21V52.5l-2.21,2.21ZM31,55.34l2.21-2.21H52.55l2.21,2.21Zm24.4-.63L53.18,52.5V33.16l2.21-2.21Z"/></g><g id="square-18" data-name="square"><g id="colors-18" data-name="colors"><path class="cls-5" d="M144.82,55.52,147.39,53h19.5l2.57,2.57Zm22.44-2.95V33.09l2.57-2.57V55.14ZM144.45,30.52,147,33.09V52.57l-2.57,2.57Zm2.94,2.19-2.57-2.57h24.63l-2.57,2.57Z"/><rect class="cls-2" x="147.55" y="33.24" width="19.18" height="19.18"/><rect class="cls-7" x="149.47" y="36.69" width="15.28" height="2.89"/><rect class="cls-5" x="149.47" y="35.86" width="15.28" height="2.89"/><rect class="cls-7" x="149.47" y="42.15" width="15.28" height="2.89"/><rect class="cls-5" x="149.47" y="41.32" width="15.28" height="2.89"/><rect class="cls-7" x="149.47" y="47.61" width="15.28" height="2.89"/><rect class="cls-5" x="149.47" y="46.79" width="15.28" height="2.89"/></g><path id="lineart-18" data-name="lineart" class="cls-4" d="M146.84,52.5V33.16l-2.21-2.21V54.71Zm19.71-.26V33.42H147.73V52.24Zm2.47,3.1-2.21-2.21H147.46l-2.21,2.21Zm-2.21-22.81L169,30.32H145.25l2.21,2.21Zm2.84,22.18V30.94l-2.21,2.21V52.5Zm1.77-26.17V57.12H142.86V28.54Z"/></g><g id="square-19" data-name="square"><g id="colors-19" data-name="colors"><path class="cls-5" d="M159.41,27V24.41h7.86V4.16h-7.86V1.59h10.43V27Zm-15,0V1.59h10.43V4.16H147V24.41h7.86V27Z"/><path class="cls-2" d="M155.41,27V24.41h3.46V27Zm0-3.1V21h3.46v2.91Zm0-16.27V4.7h3.46V7.61Zm0-3.45V1.59h3.46V4.16Z"/><polygon class="cls-1" points="159.41 23.88 159.41 20.43 154.88 20.43 154.88 23.88 147.55 23.88 147.55 4.7 154.88 4.7 154.88 8.14 159.41 8.14 159.41 4.7 166.73 4.7 166.73 23.88 159.41 23.88"/><polygon class="cls-3" points="161.18 22.1 161.18 18.66 153.11 18.66 153.11 22.1 149.32 22.1 149.32 6.47 153.11 6.47 153.11 9.91 161.18 9.91 161.18 6.47 164.96 6.47 164.96 22.1 161.18 22.1"/></g><path id="lineart-19" data-name="lineart" class="cls-4" d="M142.86,0V28.57h28.57V0Zm12.73,1.77h3.11V4h-3.11Zm0,3.1h3.11V7.43h-3.11ZM154.7,26.8H144.63v-25H154.7V4h-7.86v20.6h7.86Zm0-3.1h-7V4.87h7V8.32h4.88V4.87h7V23.7h-7V20.25H154.7Zm4,3.1h-3.11V24.58h3.11Zm0-3.1h-3.11V21.14h3.11Zm11,3.1H159.58V24.58h7.86V4h-7.86V1.77h10.07Z"/></g><g id="square-20" data-name="square"><g id="colors-20" data-name="colors"><path class="cls-5" d="M159.41,84.09V81.52h7.86V61.28h-7.86V58.71h10.43V84.09Zm-15,0V58.71h10.43v2.57H147V81.52h7.86v2.57Z"/><path class="cls-2" d="M155.41,84.09V81.52h3.46v2.57Zm0-3.1V78.08h3.46V81Zm0-16.27V61.81h3.46v2.92Zm0-3.45V58.71h3.46v2.57Z"/><polygon class="cls-1" points="159.41 80.99 159.41 77.55 154.88 77.55 154.88 80.99 147.55 80.99 147.55 61.81 154.88 61.81 154.88 65.26 159.41 65.26 159.41 61.81 166.73 61.81 166.73 80.99 159.41 80.99"/><polygon class="cls-3" points="161.18 79.22 161.18 75.77 153.11 75.77 153.11 79.22 149.32 79.22 149.32 63.58 153.11 63.58 153.11 67.03 161.18 67.03 161.18 63.58 164.96 63.58 164.96 79.22 161.18 79.22"/></g><path id="lineart-20" data-name="lineart" class="cls-4" d="M142.86,57.12V85.69h28.57V57.12Zm12.73,1.77h3.11V61.1h-3.11Zm0,3.1h3.11v2.56h-3.11Zm-.89,21.93H144.63v-25H154.7V61.1h-7.86V81.7h7.86Zm0-3.1h-7V62h7v3.45h4.88V62h7V80.81h-7V77.37H154.7Zm4,3.1h-3.11V81.7h3.11Zm0-3.1h-3.11V78.25h3.11Zm11,3.1H159.58V81.7h7.86V61.1h-7.86V58.89h10.07Z"/></g><g id="square-21" data-name="square"><g id="colors-21" data-name="colors"><path class="cls-1" d="M173,55.52V30.14h25.38V55.52ZM195.84,53V32.71H175.59V53Z"/><rect class="cls-2" x="176.12" y="33.24" width="19.18" height="19.18"/><polygon class="cls-3" points="172.47 29.6 175.86 32.97 195.34 32.97 199.01 29.6 172.47 29.6"/><polygon class="cls-3" points="172.47 56.01 173.2 55.34 175.41 53.13 184.42 52.87 196.01 53.13 198.41 55.52 172.47 56.01"/></g><path id="lineart-21" data-name="lineart" class="cls-4" d="M196,32.53h-20.6v20.6H196Zm-.89,19.71H176.3V33.42h18.83Zm-23.7-23.7V57.12H200V28.54Zm26.8,26.8h-25v-25h25Z"/></g><g id="corner"><g id="colors-22" data-name="colors"><polygon class="cls-3" points="173.02 26.98 173.02 2.59 175.59 5.16 175.59 24.41 194.84 24.41 197.41 26.98 173.02 26.98"/><polygon class="cls-2" points="176.12 23.88 176.12 5.7 194.31 23.88 176.12 23.88"/><polygon class="cls-7" points="177.9 22.1 177.9 9.97 190.03 22.1 177.9 22.1"/></g><path id="lineart-22" data-name="lineart" class="cls-4" d="M176.3,23.7h17.58L176.3,6.12ZM197,26.8l-2.21-2.21H175.42V5.24L173.2,3V26.8ZM172.68,0,200,27.32v1.25H171.43V0Z"/></g><g id="corner-2" data-name="corner"><g id="colors-23" data-name="colors"><polygon class="cls-3" points="173.02 58.71 173.02 83.09 175.59 80.52 175.59 61.28 194.84 61.28 197.41 58.71 173.02 58.71"/><polygon class="cls-2" points="176.12 61.81 176.12 79.99 194.31 61.81 176.12 61.81"/><polygon class="cls-7" points="177.9 63.58 177.9 75.72 190.03 63.58 177.9 63.58"/></g><path id="lineart-23" data-name="lineart" class="cls-4" d="M176.3,79.56,193.88,62H176.3Zm-3.1-20.68V82.67l2.21-2.21V61.1h19.35L197,58.89Zm-1.77,26.8V57.12H200v1.25L172.68,85.69Z"/></g></g></g></svg>