<?xml version="1.0" encoding="utf-8"?>
<!-- Generator: Adobe Illustrator 19.1.0, SVG Export Plug-In . SVG Version: 6.00 Build 0)  -->
<svg version="1.1" id="Calque_1" xmlns="http://www.w3.org/2000/svg" xmlns:xlink="http://www.w3.org/1999/xlink" x="0px" y="0px"
	 viewBox="0 0 129 446" style="enable-background:new 0 0 129 446;" xml:space="preserve">
<style type="text/css">
	.st0{fill:#86888C;}
	.st1{fill:#B8C5D3;}
	.st2{fill:#E1E8F4;}
	.st3{fill:#010101;}
	.st4{fill:#E0312E;}
	.st5{fill:#F15A47;}
	.st6{fill:#F58F90;}
	.st7{fill:#6C8A9A;}
	.st8{fill:#516773;}
	.st9{fill:#FFFFFF;}
	.st10{fill:#F8F5D8;}
</style>
<g id="square_35_">
	<g id="colors_367_">
		<path class="st0" d="M50.6,444.2l2.9-2.9h22l2.9,2.9H50.6z M75.9,440.8v-22l2.9-2.9v27.8L75.9,440.8z M50.2,415.9l2.9,2.9v22
			l-2.9,2.9V415.9z M53.5,418.4l-2.9-2.9h27.8l-2.9,2.9H53.5z"/>
		<rect x="53.7" y="419" class="st1" width="21.7" height="21.7"/>
		<g>
			<g>
				<rect x="55.8" y="422.9" class="st2" width="17.3" height="3.3"/>
				<rect x="55.8" y="422" class="st0" width="17.3" height="3.3"/>
			</g>
			<g>
				<rect x="55.8" y="429.1" class="st2" width="17.3" height="3.3"/>
				<rect x="55.8" y="428.1" class="st0" width="17.3" height="3.3"/>
			</g>
			<g>
				<rect x="55.8" y="435.2" class="st2" width="17.3" height="3.3"/>
				<rect x="55.8" y="434.3" class="st0" width="17.3" height="3.3"/>
			</g>
		</g>
	</g>
	<path id="lineart_339_" class="st3" d="M52.9,440.8v-21.8l-2.5-2.5v26.8L52.9,440.8z M75.1,440.5v-21.3H53.9v21.3H75.1z M77.9,444
		l-2.5-2.5H53.6l-2.5,2.5H77.9z M75.4,418.2l2.5-2.5H51.1l2.5,2.5H75.4z M78.6,443.3v-26.8l-2.5,2.5v21.8L78.6,443.3z M80.6,413.7
		V446H48.4v-32.3H80.6z"/>
</g>
<g id="bigsquare_11_">
	<g id="colors_443_">
		<rect x="18.1" y="241" class="st4" width="28.4" height="28.4"/>
		<rect x="20.1" y="243" class="st5" width="24.4" height="24.4"/>
		<rect x="24.1" y="247" class="st6" width="16.4" height="16.4"/>
		<path class="st7" d="M34.1,285.7v-2.9h25.8V257h2.9v28.7H34.1z M1.8,285.7V257h2.9v25.8h25.8v2.9H1.8z M59.8,253.4v-25.8H34.1
			v-2.9h28.7v28.7H59.8z M1.8,253.4v-28.7h28.7v2.9H4.7v25.8H1.8z"/>
		<path class="st8" d="M5.3,282.2v-53.9h53.9v53.9H5.3z M47.1,270v-29.6H17.5V270H47.1z"/>
		<path class="st7" d="M9.3,278.2v-45.9h45.9v45.9H9.3z M13.5,274h37.6v-37.6H13.5V274z"/>
	</g>
	<path id="lineart_408_" class="st3" d="M17.3,270.2h30v-30h-30V270.2z M18.3,241.2h28v28h-28V241.2z M32.3,223H0v32.3v32.3h32.3
		h32.2v-32.3V223H32.3z M2,225h28.3v2.5h-2.5H4.5v23.3v2.5H2V225z M30.3,285.5H2v-28.3h2.5v2.5V283h23.3h2.5V285.5z M5.5,282v-53.5
		H59V282H5.5z M62.5,285.5H34.3V283h2.5H60v-23.3v-2.5h2.5V285.5z M62.5,253.2H60v-2.5v-23.3H36.8h-2.5V225h28.3V253.2z"/>
</g>
<g id="bigsquare_10_">
	<g id="colors_442_">
		<rect x="82.5" y="241" class="st8" width="28.4" height="28.4"/>
		<rect x="84.5" y="243" class="st7" width="24.4" height="24.4"/>
		<rect x="88.5" y="247" class="st8" width="16.4" height="16.4"/>
		<path class="st4" d="M98.5,285.7v-2.9h25.8V257h2.9v28.7H98.5z M66.3,285.7V257h2.9v25.8h25.8v2.9H66.3z M124.3,253.4v-25.8H98.5
			v-2.9h28.7v28.7H124.3z M66.3,253.4v-28.7h28.7v2.9H69.2v25.8H66.3z"/>
		<path class="st5" d="M69.8,282.2v-53.9h53.9v53.9H69.8z M111.5,270v-29.6H81.9V270H111.5z"/>
		<path class="st6" d="M73.8,278.2v-45.9h45.9v45.9H73.8z M77.9,274h37.6v-37.6H77.9V274z"/>
	</g>
	<path id="lineart_407_" class="st3" d="M81.8,270.2h30v-30h-30V270.2z M82.8,241.2h28v28h-28V241.2z M96.8,223H64.5v32.3v32.3h32.3
		H129v-32.3V223H96.8z M66.5,225h28.3v2.5h-2.5H69v23.3v2.5h-2.5V225z M94.8,285.5H66.5v-28.3H69v2.5V283h23.3h2.5V285.5z M70,282
		v-53.5h53.5V282H70z M127,285.5H98.8V283h2.5h23.3v-23.3v-2.5h2.5V285.5z M127,253.2h-2.5v-2.5v-23.3h-23.3h-2.5V225H127V253.2z"/>
</g>
<g id="bigsquare_2_">
	<g id="colors_2_">
		<rect x="82.5" y="176.5" class="st4" width="28.4" height="28.4"/>
		<rect x="84.5" y="178.5" class="st5" width="24.4" height="24.4"/>
		<rect x="88.5" y="182.5" class="st6" width="16.4" height="16.4"/>
		<path class="st7" d="M66.3,221.2v-28.7h2.9v25.8h25.8v2.9H66.3z M98.5,221.2v-2.9h25.8v-25.8h2.9v28.7H98.5z M66.3,188.9v-28.7
			h28.7v2.9H69.2v25.8H66.3z M124.3,188.9v-25.8H98.5v-2.9h28.7v28.7H124.3z"/>
		<path class="st8" d="M69.8,217.7v-53.9h53.9v53.9H69.8z M111.5,205.5v-29.6H81.9v29.6H111.5z"/>
		<path class="st7" d="M73.8,213.7v-45.9h45.9v45.9H73.8z M115.5,171.9H77.9v37.6h37.6V171.9z"/>
	</g>
	<path id="lineart_2_" class="st3" d="M111.8,175.7h-30v30h30V175.7z M110.8,204.7h-28v-28h28V204.7z M64.5,158.5v32.3V223h32.3H129
		v-32.3v-32.3H96.8H64.5z M127,188.7h-2.5v-2.5V163h-23.3h-2.5v-2.5H127V188.7z M98.8,218.5h2.5h23.3v-23.3v-2.5h2.5V221H98.8V218.5
		z M70,217.5V164h53.5v53.5H70z M66.5,192.7H69v2.5v23.3h23.3h2.5v2.5H66.5V192.7z M66.5,160.5h28.3v2.5h-2.5H69v23.3v2.5h-2.5
		V160.5z"/>
</g>
<g id="bigsquare_1_">
	<g id="colors_1_">
		<rect x="18.1" y="176.5" class="st8" width="28.4" height="28.4"/>
		<rect x="20.1" y="178.5" class="st7" width="24.4" height="24.4"/>
		<rect x="24.1" y="182.5" class="st8" width="16.4" height="16.4"/>
		<path class="st4" d="M1.8,221.2v-28.7h2.9v25.8h25.8v2.9H1.8z M34.1,221.2v-2.9h25.8v-25.8h2.9v28.7H34.1z M1.8,188.9v-28.7h28.7
			v2.9H4.7v25.8H1.8z M59.8,188.9v-25.8H34.1v-2.9h28.7v28.7H59.8z"/>
		<path class="st5" d="M5.3,217.7v-53.9h53.9v53.9H5.3z M47.1,205.5v-29.6H17.5v29.6H47.1z"/>
		<path class="st6" d="M9.3,213.7v-45.9h45.9v45.9H9.3z M51.1,171.9H13.5v37.6h37.6V171.9z"/>
	</g>
	<path id="lineart_1_" class="st3" d="M47.3,175.7h-30v30h30V175.7z M46.3,204.7h-28v-28h28V204.7z M0,158.5l0,32.3L0,223h32.3h32.2
		v-32.3v-32.3H32.3H0z M62.5,188.7H60v-2.5V163H36.8h-2.5v-2.5h28.3V188.7z M34.3,218.5h2.5H60v-23.3v-2.5h2.5V221H34.3V218.5z
		 M5.5,217.5V164H59v53.5H5.5z M2,192.7h2.5v2.5v23.3h23.3h2.5v2.5H2V192.7z M2,160.5h28.3v2.5h-2.5H4.5v23.3v2.5H2V160.5z"/>
</g>
<g id="bigsquare_6_">
	<g id="colors_6_">
		<rect x="18.1" y="370" class="st4" width="28.4" height="28.4"/>
		<rect x="20.1" y="372" class="st5" width="24.4" height="24.4"/>
		<rect x="24.1" y="376" class="st6" width="16.4" height="16.4"/>
		<path class="st7" d="M34.1,414.7v-2.9h25.8V386h2.9v28.7H34.1z M1.8,414.7V386h2.9v25.8h25.8v2.9H1.8z M59.8,382.4v-25.8H34.1
			v-2.9h28.7v28.7H59.8z M1.8,382.4v-28.7h28.7v2.9H4.7v25.8H1.8z"/>
		<path class="st8" d="M5.3,411.2v-53.9h53.9v53.9H5.3z M47.1,399v-29.6H17.5V399H47.1z"/>
		<path class="st7" d="M9.3,407.2v-45.9h45.9v45.9H9.3z M13.5,403h37.6v-37.6H13.5V403z"/>
	</g>
	<path id="lineart_6_" class="st3" d="M17.3,399.2h30v-30h-30V399.2z M18.3,370.2h28v28h-28V370.2z M32.3,352H0v32.3v32.3h32.3h32.2
		v-32.3V352H32.3z M2,354h28.3v2.5h-2.5H4.5v23.3v2.5H2V354z M30.3,414.5H2v-28.3h2.5v2.5V412h23.3h2.5V414.5z M5.5,411v-53.5H59
		V411H5.5z M62.5,414.5H34.3V412h2.5H60v-23.3v-2.5h2.5V414.5z M62.5,382.2H60v-2.5v-23.3H36.8h-2.5V354h28.3V382.2z"/>
</g>
<g id="bigsquare_5_">
	<g id="colors_5_">
		<rect x="82.5" y="370" class="st8" width="28.4" height="28.4"/>
		<rect x="84.5" y="372" class="st7" width="24.4" height="24.4"/>
		<rect x="88.5" y="376" class="st8" width="16.4" height="16.4"/>
		<path class="st4" d="M98.5,414.7v-2.9h25.8V386h2.9v28.7H98.5z M66.3,414.7V386h2.9v25.8h25.8v2.9H66.3z M124.3,382.4v-25.8H98.5
			v-2.9h28.7v28.7H124.3z M66.3,382.4v-28.7h28.7v2.9H69.2v25.8H66.3z"/>
		<path class="st5" d="M69.8,411.2v-53.9h53.9v53.9H69.8z M111.5,399v-29.6H81.9V399H111.5z"/>
		<path class="st6" d="M73.8,407.2v-45.9h45.9v45.9H73.8z M77.9,403h37.6v-37.6H77.9V403z"/>
	</g>
	<path id="lineart_5_" class="st3" d="M81.8,399.2h30v-30h-30V399.2z M82.8,370.2h28v28h-28V370.2z M96.8,352H64.5v32.3v32.3h32.3
		H129v-32.3V352H96.8z M66.5,354h28.3v2.5h-2.5H69v23.3v2.5h-2.5V354z M94.8,414.5H66.5v-28.3H69v2.5V412h23.3h2.5V414.5z M70,411
		v-53.5h53.5V411H70z M127,414.5H98.8V412h2.5h23.3v-23.3v-2.5h2.5V414.5z M127,382.2h-2.5v-2.5v-23.3h-23.3h-2.5V354H127V382.2z"/>
</g>
<g id="bigsquare_4_">
	<g id="colors_4_">
		<rect x="82.5" y="305.5" class="st4" width="28.4" height="28.4"/>
		<rect x="84.5" y="307.5" class="st5" width="24.4" height="24.4"/>
		<rect x="88.5" y="311.5" class="st6" width="16.4" height="16.4"/>
		<path class="st7" d="M66.3,350.2v-28.7h2.9v25.8h25.8v2.9H66.3z M98.5,350.2v-2.9h25.8v-25.8h2.9v28.7H98.5z M66.3,317.9v-28.7
			h28.7v2.9H69.2v25.8H66.3z M124.3,317.9v-25.8H98.5v-2.9h28.7v28.7H124.3z"/>
		<path class="st8" d="M69.8,346.7v-53.9h53.9v53.9H69.8z M111.5,334.5v-29.6H81.9v29.6H111.5z"/>
		<path class="st7" d="M73.8,342.7v-45.9h45.9v45.9H73.8z M115.5,300.9H77.9v37.6h37.6V300.9z"/>
	</g>
	<path id="lineart_4_" class="st3" d="M111.8,304.7h-30v30h30V304.7z M110.8,333.7h-28v-28h28V333.7z M64.5,287.5v32.3V352h32.3H129
		v-32.3v-32.3H96.8H64.5z M127,317.7h-2.5v-2.5V292h-23.3h-2.5v-2.5H127V317.7z M98.8,347.5h2.5h23.3v-23.3v-2.5h2.5V350H98.8V347.5
		z M70,346.5V293h53.5v53.5H70z M66.5,321.7H69v2.5v23.3h23.3h2.5v2.5H66.5V321.7z M66.5,289.5h28.3v2.5h-2.5H69v23.3v2.5h-2.5
		V289.5z"/>
</g>
<g id="bigsquare_3_">
	<g id="colors_3_">
		<rect x="18.1" y="305.5" class="st8" width="28.4" height="28.4"/>
		<rect x="20.1" y="307.5" class="st7" width="24.4" height="24.4"/>
		<rect x="24.1" y="311.5" class="st8" width="16.4" height="16.4"/>
		<path class="st4" d="M1.8,350.2v-28.7h2.9v25.8h25.8v2.9H1.8z M34.1,350.2v-2.9h25.8v-25.8h2.9v28.7H34.1z M1.8,317.9v-28.7h28.7
			v2.9H4.7v25.8H1.8z M59.8,317.9v-25.8H34.1v-2.9h28.7v28.7H59.8z"/>
		<path class="st5" d="M5.3,346.7v-53.9h53.9v53.9H5.3z M47.1,334.5v-29.6H17.5v29.6H47.1z"/>
		<path class="st6" d="M9.3,342.7v-45.9h45.9v45.9H9.3z M51.1,300.9H13.5v37.6h37.6V300.9z"/>
	</g>
	<path id="lineart_3_" class="st3" d="M47.3,304.7h-30v30h30V304.7z M46.3,333.7h-28v-28h28V333.7z M0,287.5l0,32.3L0,352h32.3h32.2
		v-32.3v-32.3H32.3H0z M62.5,317.7H60v-2.5V292H36.8h-2.5v-2.5h28.3V317.7z M34.3,347.5h2.5H60v-23.3v-2.5h2.5V350H34.3V347.5z
		 M5.5,346.5V293H59v53.5H5.5z M2,321.7h2.5v2.5v23.3h23.3h2.5v2.5H2V321.7z M2,289.5h28.3v2.5h-2.5H4.5v23.3v2.5H2V289.5z"/>
</g>
<g id="bigsquare_12_">
	<g id="colors_10_">
		<rect x="18.1" y="112" class="st4" width="28.4" height="28.4"/>
		<rect x="20.1" y="114" class="st5" width="24.4" height="24.4"/>
		<rect x="24.1" y="118" class="st6" width="16.4" height="16.4"/>
		<path class="st7" d="M34.1,156.7v-2.9h25.8V128h2.9v28.7H34.1z M1.8,156.7V128h2.9v25.8h25.8v2.9H1.8z M59.8,124.4V98.7H34.1v-2.9
			h28.7v28.7H59.8z M1.8,124.4V95.8h28.7v2.9H4.7v25.8H1.8z"/>
		<path class="st8" d="M5.3,153.2V99.3h53.9v53.9H5.3z M47.1,141v-29.6H17.5V141H47.1z"/>
		<path class="st7" d="M9.3,149.2v-45.9h45.9v45.9H9.3z M13.5,145h37.6v-37.6H13.5V145z"/>
	</g>
	<path id="lineart_10_" class="st3" d="M17.3,141.2h30v-30h-30V141.2z M18.3,112.2h28v28h-28V112.2z M32.3,94H0v32.3v32.3h32.3h32.2
		v-32.3V94H32.3z M2,96h28.3v2.5h-2.5H4.5v23.3v2.5H2V96z M30.3,156.5H2v-28.3h2.5v2.5V154h23.3h2.5V156.5z M5.5,153V99.5H59V153
		H5.5z M62.5,156.5H34.3V154h2.5H60v-23.3v-2.5h2.5V156.5z M62.5,124.2H60v-2.5V98.5H36.8h-2.5V96h28.3V124.2z"/>
</g>
<g id="bigsquare_9_">
	<g id="colors_9_">
		<rect x="82.5" y="112" class="st8" width="28.4" height="28.4"/>
		<rect x="84.5" y="114" class="st7" width="24.4" height="24.4"/>
		<rect x="88.5" y="118" class="st8" width="16.4" height="16.4"/>
		<path class="st4" d="M98.5,156.7v-2.9h25.8V128h2.9v28.7H98.5z M66.3,156.7V128h2.9v25.8h25.8v2.9H66.3z M124.3,124.4V98.7H98.5
			v-2.9h28.7v28.7H124.3z M66.3,124.4V95.8h28.7v2.9H69.2v25.8H66.3z"/>
		<path class="st5" d="M69.8,153.2V99.3h53.9v53.9H69.8z M111.5,141v-29.6H81.9V141H111.5z"/>
		<path class="st6" d="M73.8,149.2v-45.9h45.9v45.9H73.8z M77.9,145h37.6v-37.6H77.9V145z"/>
	</g>
	<path id="lineart_9_" class="st3" d="M81.8,141.2h30v-30h-30V141.2z M82.8,112.2h28v28h-28V112.2z M96.8,94H64.5v32.3v32.2h32.3
		H129v-32.2V94H96.8z M66.5,96h28.3v2.5h-2.5H69v23.3v2.5h-2.5V96z M94.8,156.5H66.5v-28.3H69v2.5V154h23.3h2.5V156.5z M70,153V99.5
		h53.5V153H70z M127,156.5H98.8V154h2.5h23.3v-23.3v-2.5h2.5V156.5z M127,124.2h-2.5v-2.5V98.5h-23.3h-2.5V96H127V124.2z"/>
</g>
<g id="bigsquare_8_">
	<g id="colors_8_">
		<rect x="82.5" y="47.5" class="st4" width="28.4" height="28.4"/>
		<rect x="84.5" y="49.5" class="st5" width="24.4" height="24.4"/>
		<rect x="88.5" y="53.5" class="st6" width="16.4" height="16.4"/>
		<path class="st7" d="M66.3,92.2V63.5h2.9v25.8h25.8v2.9H66.3z M98.5,92.2v-2.9h25.8V63.5h2.9v28.7H98.5z M66.3,59.9V31.2h28.7v2.9
			H69.2v25.8H66.3z M124.3,59.9V34.2H98.5v-2.9h28.7v28.7H124.3z"/>
		<path class="st8" d="M69.8,88.7V34.7h53.9v53.9H69.8z M111.5,76.5V46.9H81.9v29.6H111.5z"/>
		<path class="st7" d="M73.8,84.7V38.7h45.9v45.9H73.8z M115.5,42.9H77.9v37.6h37.6V42.9z"/>
	</g>
	<path id="lineart_8_" class="st3" d="M111.8,46.7h-30v30h30V46.7z M110.8,75.7h-28v-28h28V75.7z M64.5,29.5v32.3V94h32.3H129V61.7
		V29.5H96.8H64.5z M127,59.7h-2.5v-2.5V34h-23.3h-2.5v-2.5H127V59.7z M98.8,89.5h2.5h23.3V66.2v-2.5h2.5V92H98.8V89.5z M70,88.5V35
		h53.5v53.5H70z M66.5,63.7H69v2.5v23.3h23.3h2.5V92H66.5V63.7z M66.5,31.5h28.3V34h-2.5H69v23.3v2.5h-2.5V31.5z"/>
</g>
<g id="bigsquare_7_">
	<g id="colors_7_">
		<rect x="18.1" y="47.5" class="st8" width="28.4" height="28.4"/>
		<rect x="20.1" y="49.5" class="st7" width="24.4" height="24.4"/>
		<rect x="24.1" y="53.5" class="st8" width="16.4" height="16.4"/>
		<path class="st4" d="M1.8,92.2V63.5h2.9v25.8h25.8v2.9H1.8z M34.1,92.2v-2.9h25.8V63.5h2.9v28.7H34.1z M1.8,59.9V31.2h28.7v2.9
			H4.7v25.8H1.8z M59.8,59.9V34.2H34.1v-2.9h28.7v28.7H59.8z"/>
		<path class="st5" d="M5.3,88.7V34.8h53.9v53.9H5.3z M47.1,76.5V46.9H17.5v29.6H47.1z"/>
		<path class="st6" d="M9.3,84.7V38.8h45.9v45.9H9.3z M51.1,42.9H13.5v37.6h37.6V42.9z"/>
	</g>
	<path id="lineart_7_" class="st3" d="M47.3,46.7h-30v30h30V46.7z M46.3,75.7h-28v-28h28V75.7z M0,29.5l0,32.3L0,94h32.3h32.2V61.7
		V29.5H32.3H0z M62.5,59.7H60v-2.5V34H36.8h-2.5v-2.5h28.3V59.7z M34.3,89.5h2.5H60V66.2v-2.5h2.5V92H34.3V89.5z M5.5,88.5V35H59
		v53.5H5.5z M2,63.7h2.5v2.5v23.3h23.3h2.5V92H2V63.7z M2,31.5h28.3V34h-2.5H4.5v23.3v2.5H2V31.5z"/>
</g>
<g id="square_43_">
	<g id="colors_455_">
		<path class="st4" d="M82.8,205l2.9-2.9h22l2.9,2.9H82.8z M108.2,201.7v-22l2.9-2.9v27.8L108.2,201.7z M82.4,176.8l2.9,2.9v22
			l-2.9,2.9V176.8z M85.7,179.3l-2.9-2.9h27.8l-2.9,2.9H85.7z"/>
		<rect x="85.9" y="179.9" class="st5" width="21.7" height="21.7"/>
		<g>
			<g>
				<rect x="88.1" y="183.8" class="st6" width="17.3" height="3.3"/>
				<rect x="88.1" y="182.8" class="st4" width="17.3" height="3.3"/>
			</g>
			<g>
				<rect x="88.1" y="189.9" class="st6" width="17.3" height="3.3"/>
				<rect x="88.1" y="189" class="st4" width="17.3" height="3.3"/>
			</g>
			<g>
				<rect x="88.1" y="196.1" class="st6" width="17.3" height="3.3"/>
				<rect x="88.1" y="195.2" class="st4" width="17.3" height="3.3"/>
			</g>
		</g>
	</g>
	<path id="lineart_420_" class="st3" d="M85.1,201.6v-21.8l-2.5-2.5v26.8L85.1,201.6z M107.4,201.3v-21.3H86.1v21.3H107.4z
		 M110.2,204.8l-2.5-2.5H85.8l-2.5,2.5H110.2z M107.7,179.1l2.5-2.5H83.3l2.5,2.5H107.7z M110.9,204.1v-26.8l-2.5,2.5v21.8
		L110.9,204.1z M112.9,174.6v32.3H80.6v-32.3H112.9z"/>
</g>
<g id="other_26_">
	<g id="colors_441_">
		<rect x="47.3" y="422.2" class="st8" width="4.9" height="17.4"/>
		<rect x="49.8" y="422.2" class="st7" width="2.5" height="17.4"/>
		<polygon class="st5" points="38.8,418.3 38.8,423.3 38.2,423.3 38.2,418.3 35.8,418.3 35.8,423.3 35.2,423.3 35.2,418.3 
			32.8,418.3 32.8,423.3 32.2,423.3 32.2,418.3 29.8,418.3 29.8,423.3 29.2,423.3 29.2,418.3 26.8,418.3 26.8,423.3 26.2,423.3 
			26.2,418.3 23.8,418.3 23.8,423.3 23.2,423.3 23.2,418.3 20.8,418.3 20.8,423.3 20.2,423.3 20.2,418.3 17.8,418.3 17.8,423.3 
			17.2,423.3 17.2,418.3 14.8,418.3 14.8,423.3 14.2,423.3 14.2,418.3 3,418.3 17.2,444.2 52.2,444.2 52.2,440.2 46.7,440.2 
			46.7,421.6 52.2,421.6 52.2,418.3 		"/>
		<polygon class="st6" points="40.8,420.3 40.8,425.3 12.2,425.3 12.2,420.3 6.4,420.3 18.3,442.2 44.7,442.2 44.7,420.3 		"/>
		<rect x="38.7" y="431.2" class="st9" width="2.8" height="8"/>
		<rect x="33.5" y="431.2" class="st9" width="2.8" height="8"/>
	</g>
	<path id="lineart_406_" class="st3" d="M47.5,422.4v17H52v-17H47.5z M39,418.5v5.1h-1v-5.1h-2v5.1h-1v-5.1h-2v5.1h-1v-5.1h-2v5.1
		h-1v-5.1h-2v5.1h-1v-5.1h-2v5.1h-1v-5.1h-2v5.1h-1v-5.1h-2v5.1h-1v-5.1h-2v5.1h-1v-5.1H3.4L17.3,444H52v-3.6h-5.5v-19H52v-2.9H39z
		 M16.1,446L0,416.5h54V446H16.1z"/>
</g>
<g id="other_1_">
	<g id="colors_11_">
		<rect x="76.8" y="422.1" class="st8" width="4.9" height="17.4"/>
		<rect x="76.8" y="422.1" class="st7" width="2.5" height="17.4"/>
		<polygon class="st5" points="90.2,418.2 90.2,423.3 90.8,423.3 90.8,418.2 93.2,418.2 93.2,423.3 93.8,423.3 93.8,418.2 
			96.2,418.2 96.2,423.3 96.8,423.3 96.8,418.2 99.2,418.2 99.2,423.3 99.8,423.3 99.8,418.2 102.2,418.2 102.2,423.3 102.8,423.3 
			102.8,418.2 105.2,418.2 105.2,423.3 105.8,423.3 105.8,418.2 108.2,418.2 108.2,423.3 108.8,423.3 108.8,418.2 111.2,418.2 
			111.2,423.3 111.8,423.3 111.8,418.2 114.2,418.2 114.2,423.3 114.8,423.3 114.8,418.2 126,418.2 111.8,444.2 76.8,444.2 
			76.8,440.2 82.3,440.2 82.3,421.6 76.8,421.6 76.8,418.2 		"/>
		<polygon class="st6" points="88.2,420.2 88.2,425.3 116.8,425.3 116.8,420.2 122.6,420.2 110.7,442.2 84.3,442.2 84.3,420.2 		"/>
		<rect x="87.4" y="431.2" class="st9" width="2.8" height="8"/>
		<rect x="92.7" y="431.2" class="st9" width="2.8" height="8"/>
	</g>
	<path id="lineart_11_" class="st3" d="M77,422.4v17h4.5v-17H77z M77,418.4v2.9h5.5v19H77v3.6h34.7l13.9-25.5H115v5.1h-1v-5.1h-2
		v5.1h-1v-5.1h-2v5.1h-1v-5.1h-2v5.1h-1v-5.1h-2v5.1h-1v-5.1h-2v5.1h-1v-5.1h-2v5.1h-1v-5.1h-2v5.1h-1v-5.1h-2v5.1h-1v-5.1H77z
		 M75,446v-29.5h54L112.9,446H75z"/>
</g>
<g id="square_1_">
	<g id="colors_14_">
		<path class="st0" d="M78.4,1.8l-2.9,2.9h-22l-2.9-2.9H78.4z M53.1,5.1v22L50.2,30V2.2L53.1,5.1z M78.8,30l-2.9-2.9v-22l2.9-2.9V30
			z M75.5,27.5l2.9,2.9H50.6l2.9-2.9H75.5z"/>
		<rect x="53.7" y="5.3" class="st1" width="21.7" height="21.7"/>
		<g>
			<g>
				<rect x="55.9" y="19.8" class="st2" width="17.3" height="3.3"/>
				<rect x="55.9" y="20.7" class="st0" width="17.3" height="3.3"/>
			</g>
			<g>
				<rect x="55.9" y="13.6" class="st2" width="17.3" height="3.3"/>
				<rect x="55.9" y="14.6" class="st0" width="17.3" height="3.3"/>
			</g>
			<g>
				<rect x="55.9" y="7.5" class="st2" width="17.3" height="3.3"/>
				<rect x="55.9" y="8.4" class="st0" width="17.3" height="3.3"/>
			</g>
		</g>
	</g>
	<path id="lineart_14_" class="st3" d="M76.1,5.2V27l2.5,2.5V2.7L76.1,5.2z M53.9,5.5v21.3h21.3V5.5H53.9z M51.1,2l2.5,2.5h21.8
		L77.9,2H51.1z M53.6,27.8l-2.5,2.5h26.8l-2.5-2.5H53.6z M50.4,2.7v26.8l2.5-2.5V5.2L50.4,2.7z M48.4,32.3V0l32.3,0v32.3H48.4z"/>
</g>
<g id="other_3_">
	<g id="colors_13_">
		<rect x="76.8" y="6.4" class="st8" width="4.9" height="17.4"/>
		<rect x="76.8" y="6.4" class="st7" width="2.5" height="17.4"/>
		<polygon class="st5" points="90.2,27.7 90.2,22.7 90.8,22.7 90.8,27.7 93.2,27.7 93.2,22.7 93.8,22.7 93.8,27.7 96.2,27.7 
			96.2,22.7 96.8,22.7 96.8,27.7 99.2,27.7 99.2,22.7 99.8,22.7 99.8,27.7 102.2,27.7 102.2,22.7 102.8,22.7 102.8,27.7 105.2,27.7 
			105.2,22.7 105.8,22.7 105.8,27.7 108.2,27.7 108.2,22.7 108.8,22.7 108.8,27.7 111.2,27.7 111.2,22.7 111.8,22.7 111.8,27.7 
			114.2,27.7 114.2,22.7 114.8,22.7 114.8,27.7 126,27.7 111.8,1.8 76.8,1.8 76.8,5.8 82.3,5.8 82.3,24.4 76.8,24.4 76.8,27.7 		"/>
		<polygon class="st6" points="88.2,25.7 88.2,20.7 116.8,20.7 116.8,25.7 122.6,25.7 110.7,3.8 84.3,3.8 84.3,25.7 		"/>
		<rect x="87.4" y="6.7" class="st9" width="2.8" height="8"/>
		<rect x="92.7" y="6.7" class="st9" width="2.8" height="8"/>
	</g>
	<path id="lineart_13_" class="st3" d="M81.5,23.6v-17H77v17H81.5z M90,27.5v-5.1h1v5.1h2v-5.1h1v5.1h2v-5.1h1v5.1h2v-5.1h1v5.1h2
		v-5.1h1v5.1h2v-5.1h1v5.1h2v-5.1h1v5.1h2v-5.1h1v5.1h2v-5.1h1v5.1h10.7L111.7,2H77v3.6h5.5v19H77v2.9H90z M112.9,0L129,29.5H75V0
		L112.9,0z"/>
</g>
<g id="other_2_">
	<g id="colors_12_">
		<rect x="47.3" y="6.4" class="st8" width="4.9" height="17.4"/>
		<rect x="49.8" y="6.4" class="st7" width="2.5" height="17.4"/>
		<polygon class="st5" points="38.8,27.7 38.8,22.7 38.2,22.7 38.2,27.7 35.8,27.7 35.8,22.7 35.2,22.7 35.2,27.7 32.8,27.7 
			32.8,22.7 32.2,22.7 32.2,27.7 29.8,27.7 29.8,22.7 29.2,22.7 29.2,27.7 26.8,27.7 26.8,22.7 26.2,22.7 26.2,27.7 23.8,27.7 
			23.8,22.7 23.2,22.7 23.2,27.7 20.8,27.7 20.8,22.7 20.2,22.7 20.2,27.7 17.8,27.7 17.8,22.7 17.2,22.7 17.2,27.7 14.8,27.7 
			14.8,22.7 14.2,22.7 14.2,27.7 3,27.7 17.2,1.8 52.2,1.8 52.2,5.8 46.7,5.8 46.7,24.4 52.2,24.4 52.2,27.7 		"/>
		<polygon class="st6" points="40.8,25.7 40.8,20.7 12.2,20.7 12.2,25.7 6.4,25.7 18.3,3.8 44.7,3.8 44.7,25.7 		"/>
		<rect x="38.7" y="6.7" class="st9" width="2.8" height="8"/>
		<rect x="33.5" y="6.7" class="st9" width="2.8" height="8"/>
	</g>
	<path id="lineart_12_" class="st3" d="M52,23.6v-17h-4.5v17H52z M52,27.5v-2.9h-5.5v-19H52V2H17.3L3.4,27.5H14v-5.1h1v5.1h2v-5.1h1
		v5.1h2v-5.1h1v5.1h2v-5.1h1v5.1h2v-5.1h1v5.1h2v-5.1h1v5.1h2v-5.1h1v5.1h2v-5.1h1v5.1h2v-5.1h1v5.1H52z M54,0v29.5H0L16.1,0H54z"/>
</g>
<g id="square_45_">
	<g id="colors_457_">
		<path class="st8" d="M17.9,269.5v-28.7h28.7v28.7H17.9z M43.7,266.6v-22.8H20.8v22.8H43.7z"/>
		<rect x="21.4" y="244.4" class="st5" width="21.7" height="21.7"/>
		<polygon class="st7" points="17.3,240.3 21.1,244.1 43.1,244.1 47.3,240.3 		"/>
		<polygon class="st7" points="17.3,270.1 18.1,269.3 20.6,266.8 30.8,266.5 43.9,266.8 46.6,269.5 		"/>
		<g>
			<polygon class="st9" points="32.3,252 35.9,255.6 37.7,253.8 32.3,248.4 26.8,253.8 28.7,255.6 			"/>
			<polygon class="st9" points="32.3,258.3 35.9,262 37.7,260.1 32.3,254.7 26.8,260.1 28.7,262 			"/>
		</g>
	</g>
	<path id="lineart_422_" class="st3" d="M43.9,243.6H20.6v23.3h23.3V243.6z M42.9,265.8H21.6v-21.3h21.3V265.8z M16.1,239.1v32.3
		h32.3v-32.3H16.1z M46.4,269.3H18.1v-28.3h28.3V269.3z"/>
</g>
<g id="square_2_">
	<g id="colors_15_">
		<path class="st0" d="M18.8,75.7l2.9-2.9h22l2.9,2.9H18.8z M44.1,72.4v-22l2.9-2.9v27.8L44.1,72.4z M18.4,47.5l2.9,2.9v22l-2.9,2.9
			V47.5z M21.7,49.9L18.8,47h27.8l-2.9,2.9H21.7z"/>
		<rect x="21.9" y="50.5" class="st1" width="21.7" height="21.7"/>
		<g>
			<g>
				<rect x="24.1" y="54.4" class="st2" width="17.3" height="3.3"/>
				<rect x="24.1" y="53.5" class="st0" width="17.3" height="3.3"/>
			</g>
			<g>
				<rect x="24.1" y="60.6" class="st2" width="17.3" height="3.3"/>
				<rect x="24.1" y="59.7" class="st0" width="17.3" height="3.3"/>
			</g>
			<g>
				<rect x="24.1" y="66.8" class="st2" width="17.3" height="3.3"/>
				<rect x="24.1" y="65.8" class="st0" width="17.3" height="3.3"/>
			</g>
		</g>
	</g>
	<path id="lineart_15_" class="st3" d="M21.1,72.3V50.5L18.6,48v26.8L21.1,72.3z M43.3,72V50.7H22.1V72H43.3z M46.1,75.5L43.6,73
		H21.8l-2.5,2.5H46.1z M43.6,49.7l2.5-2.5H19.3l2.5,2.5H43.6z M46.8,74.8V48l-2.5,2.5v21.8L46.8,74.8z M48.8,45.2v32.2H16.6V45.2
		H48.8z"/>
</g>
<g id="square_34_">
	<g id="colors_366_">
		<path class="st0" d="M82.9,269.6l2.9-2.9h22l2.9,2.9H82.9z M108.2,266.2v-22l2.9-2.9v27.8L108.2,266.2z M82.4,241.3l2.9,2.9v22
			l-2.9,2.9V241.3z M85.8,243.8l-2.9-2.9h27.8l-2.9,2.9H85.8z"/>
		<path class="st1" d="M85.9,266.1v-21.7h21.7v21.7H85.9z M96.7,247.7c-4.2,0-7.5,3.4-7.5,7.5c0,4.2,3.4,7.5,7.5,7.5
			c4.2,0,7.5-3.4,7.5-7.5C104.3,251.1,100.9,247.7,96.7,247.7z"/>
		<path class="st10" d="M96.7,262.2c-3.8,0-6.9-3.1-6.9-6.9c0-3.8,3.1-6.9,6.9-6.9c3.8,0,6.9,3.1,6.9,6.9
			C103.7,259.1,100.6,262.2,96.7,262.2z"/>
	</g>
	<path id="lineart_338_" class="st3" d="M96.7,263c4.3,0,7.7-3.5,7.7-7.7c0-4.3-3.5-7.7-7.7-7.7c-4.3,0-7.7,3.5-7.7,7.7
		C89,259.5,92.5,263,96.7,263z M96.7,248.5c3.7,0,6.7,3,6.7,6.7c0,3.7-3,6.7-6.7,6.7c-3.7,0-6.7-3-6.7-6.7
		C90,251.5,93,248.5,96.7,248.5z M80.6,239.1v32.3h32.2v-32.3H80.6z M110.2,241.1l-2.5,2.5H85.8l-2.5-2.5H110.2z M107.4,244.6v21.3
		H86.1v-21.3H107.4z M82.6,241.8l2.5,2.5v21.8l-2.5,2.5V241.8z M83.3,269.4l2.5-2.5h21.8l2.5,2.5H83.3z M110.9,268.7l-2.5-2.5v-21.8
		l2.5-2.5V268.7z"/>
</g>
<g id="square_40_">
	<g id="colors_452_">
		<path class="st4" d="M34.8,398.5v-2.9h8.9v-22.8h-8.9v-2.9h11.8v28.7H34.8z M17.9,398.5v-28.7h11.8v2.9h-8.9v22.8h8.9v2.9H17.9z"
			/>
		<path class="st5" d="M30.3,398.5v-2.9h3.9v2.9H30.3z M30.3,395v-3.3h3.9v3.3H30.3z M30.3,376.7v-3.3h3.9v3.3H30.3z M30.3,372.8
			v-2.9h3.9v2.9H30.3z"/>
		<polygon class="st8" points="34.8,395 34.8,391.1 29.7,391.1 29.7,395 21.4,395 21.4,373.4 29.7,373.4 29.7,377.3 34.8,377.3 
			34.8,373.4 43.1,373.4 43.1,395 		"/>
		<polygon class="st7" points="36.8,393 36.8,389.1 27.7,389.1 27.7,393 23.4,393 23.4,375.4 27.7,375.4 27.7,379.3 36.8,379.3 
			36.8,375.4 41.1,375.4 41.1,393 		"/>
	</g>
	<path id="lineart_417_" class="st3" d="M16.1,368.1v32.3h32.3v-32.3H16.1z M30.5,370.1H34v2.5h-3.5V370.1z M30.5,373.6H34v2.9h-3.5
		V373.6z M29.5,398.3H18.1v-28.3h11.4v2.5h-8.9v23.3h8.9V398.3z M29.5,394.8h-7.9v-21.3h7.9v3.9H35v-3.9h7.9v21.3H35v-3.9h-5.5
		V394.8z M34,398.3h-3.5v-2.5H34V398.3z M34,394.8h-3.5v-2.9H34V394.8z M46.4,398.3H35v-2.5h8.9v-23.3H35v-2.5h11.4V398.3z"/>
</g>
</svg>
