<?xml version="1.0" encoding="utf-8"?>
<!-- Generator: Adobe Illustrator 19.1.0, SVG Export Plug-In . SVG Version: 6.00 Build 0)  -->
<svg version="1.1" id="Calque_1" xmlns="http://www.w3.org/2000/svg" xmlns:xlink="http://www.w3.org/1999/xlink" x="0px" y="0px"
	 viewBox="0 0 64.5 129" style="enable-background:new 0 0 64.5 129;" xml:space="preserve">
<style type="text/css">
	.st0{fill:#86888C;}
	.st1{fill:#B8C5D3;}
	.st2{fill:#742D2D;}
	.st3{fill:#A31E21;}
	.st4{fill:#010101;}
	.st5{fill:#E1E8F4;}
</style>
<g id="square_2_">
	<g id="colors_2_">
		<path class="st0" d="M34.5,30.5l2.9-2.9h22l2.9,2.9H34.5z M59.8,27.1v-22l2.9-2.9V30L59.8,27.1z M34,2.2L37,5.1v22L34,30V2.2z
			 M37.4,4.7l-2.9-2.9h27.8l-2.9,2.9H37.4z"/>
		<path class="st1" d="M37.5,27V5.3h21.7V27H37.5z M48.4,8.6c-4.2,0-7.5,3.4-7.5,7.5c0,4.2,3.4,7.5,7.5,7.5c4.2,0,7.5-3.4,7.5-7.5
			C55.9,12,52.5,8.6,48.4,8.6z"/>
		<path class="st2" d="M48.4,23.1c-3.8,0-6.9-3.1-6.9-6.9c0-3.8,3.1-6.9,6.9-6.9c3.8,0,6.9,3.1,6.9,6.9C55.3,20,52.2,23.1,48.4,23.1
			z"/>
		<path class="st3" d="M48.4,20.7c-2.5,0-4.6-2.1-4.6-4.6c0-2.5,2.1-4.6,4.6-4.6c2.5,0,4.6,2.1,4.6,4.6C53,18.7,50.9,20.7,48.4,20.7
			z"/>
	</g>
	<path id="lineart_2_" class="st4" d="M48.4,23.9c4.3,0,7.7-3.5,7.7-7.7c0-4.3-3.5-7.7-7.7-7.7c-4.3,0-7.7,3.5-7.7,7.7
		C40.6,20.4,44.1,23.9,48.4,23.9z M48.4,9.4c3.7,0,6.7,3,6.7,6.7c0,3.7-3,6.7-6.7,6.7c-3.7,0-6.7-3-6.7-6.7
		C41.6,12.4,44.7,9.4,48.4,9.4z M32.3,0v32.3h32.3V0H32.3z M61.8,2l-2.5,2.5H37.5L35,2H61.8z M59,5.5v21.3H37.8V5.5H59z M34.3,2.7
		l2.5,2.5V27l-2.5,2.5V2.7z M35,30.3l2.5-2.5h21.8l2.5,2.5H35z M62.5,29.5L60,27V5.2l2.5-2.5V29.5z"/>
</g>
<g id="square_33_">
	<g id="colors_365_">
		<path class="st0" d="M2.2,30.5l2.9-2.9h22l2.9,2.9H2.2z M27.5,27.1v-22l2.9-2.9V30L27.5,27.1z M1.8,2.2l2.9,2.9v22L1.8,30V2.2z
			 M5.1,4.7L2.2,1.8H30l-2.9,2.9H5.1z"/>
		<path class="st1" d="M5.3,27V5.3H27V27H5.3z M16.1,8.6c-4.2,0-7.5,3.4-7.5,7.5c0,4.2,3.4,7.5,7.5,7.5c4.2,0,7.5-3.4,7.5-7.5
			C23.7,12,20.3,8.6,16.1,8.6z"/>
		<path class="st2" d="M16.1,23.1c-3.8,0-6.9-3.1-6.9-6.9c0-3.8,3.1-6.9,6.9-6.9c3.8,0,6.9,3.1,6.9,6.9C23.1,20,19.9,23.1,16.1,23.1
			z"/>
		<path class="st3" d="M16.1,20.7c-2.5,0-4.6-2.1-4.6-4.6c0-2.5,2.1-4.6,4.6-4.6c2.5,0,4.6,2.1,4.6,4.6
			C20.7,18.7,18.7,20.7,16.1,20.7z"/>
	</g>
	<path id="lineart_337_" class="st4" d="M16.1,23.9c4.3,0,7.7-3.5,7.7-7.7c0-4.3-3.5-7.7-7.7-7.7c-4.3,0-7.7,3.5-7.7,7.7
		C8.4,20.4,11.9,23.9,16.1,23.9z M16.1,9.4c3.7,0,6.7,3,6.7,6.7c0,3.7-3,6.7-6.7,6.7c-3.7,0-6.7-3-6.7-6.7
		C9.4,12.4,12.4,9.4,16.1,9.4z M0,0v32.3h32.3V0H0z M29.5,2L27,4.5H5.2L2.7,2H29.5z M26.8,5.5v21.3H5.5V5.5H26.8z M2,2.7l2.5,2.5V27
		L2,29.5V2.7z M2.7,30.3l2.5-2.5H27l2.5,2.5H2.7z M30.3,29.5L27.8,27V5.2l2.5-2.5V29.5z"/>
</g>
<g id="square_35_">
	<g id="colors_367_">
		<path class="st0" d="M2.2,127.2l2.9-2.9h22l2.9,2.9H2.2z M27.5,123.9v-22l2.9-2.9v27.8L27.5,123.9z M1.8,99l2.9,2.9v22l-2.9,2.9
			V99z M5.1,101.5l-2.9-2.9H30l-2.9,2.9H5.1z"/>
		<rect x="5.3" y="102" class="st1" width="21.7" height="21.7"/>
		<g>
			<g>
				<rect x="7.5" y="105.9" class="st5" width="17.3" height="3.3"/>
				<rect x="7.5" y="105" class="st0" width="17.3" height="3.3"/>
			</g>
			<g>
				<rect x="7.5" y="112.1" class="st5" width="17.3" height="3.3"/>
				<rect x="7.5" y="111.2" class="st0" width="17.3" height="3.3"/>
			</g>
			<g>
				<rect x="7.5" y="118.3" class="st5" width="17.3" height="3.3"/>
				<rect x="7.5" y="117.3" class="st0" width="17.3" height="3.3"/>
			</g>
		</g>
	</g>
	<path id="lineart_339_" class="st4" d="M4.5,123.8V102L2,99.5v26.8L4.5,123.8z M26.8,123.5v-21.3H5.5v21.3H26.8z M29.5,127
		l-2.5-2.5H5.2L2.7,127H29.5z M27,101.3l2.5-2.5H2.7l2.5,2.5H27z M30.3,126.3V99.5l-2.5,2.5v21.8L30.3,126.3z M32.3,96.8V129H0V96.8
		H32.3z"/>
</g>
<g id="square_1_">
	<g id="colors_1_">
		<path class="st0" d="M34.5,127.2l2.9-2.9h22l2.9,2.9H34.5z M59.8,123.9v-22l2.9-2.9v27.8L59.8,123.9z M34,99l2.9,2.9v22l-2.9,2.9
			V99z M37.4,101.5l-2.9-2.9h27.8l-2.9,2.9H37.4z"/>
		<rect x="37.5" y="102" class="st1" width="21.7" height="21.7"/>
		<g>
			<g>
				<rect x="39.7" y="105.9" class="st5" width="17.3" height="3.3"/>
				<rect x="39.7" y="105" class="st0" width="17.3" height="3.3"/>
			</g>
			<g>
				<rect x="39.7" y="112.1" class="st5" width="17.3" height="3.3"/>
				<rect x="39.7" y="111.2" class="st0" width="17.3" height="3.3"/>
			</g>
			<g>
				<rect x="39.7" y="118.3" class="st5" width="17.3" height="3.3"/>
				<rect x="39.7" y="117.3" class="st0" width="17.3" height="3.3"/>
			</g>
		</g>
	</g>
	<path id="lineart_1_" class="st4" d="M36.8,123.8V102l-2.5-2.5v26.8L36.8,123.8z M59,123.5v-21.3H37.8v21.3H59z M61.8,127l-2.5-2.5
		H37.4l-2.5,2.5H61.8z M59.3,101.3l2.5-2.5H34.9l2.5,2.5H59.3z M62.5,126.3V99.5L60,102v21.8L62.5,126.3z M64.5,96.8V129H32.3V96.8
		H64.5z"/>
</g>
<g id="bigsquare_8_">
	<g id="colors_354_">
		<rect x="18" y="50.3" class="st2" width="28.4" height="28.4"/>
		<rect x="20" y="52.3" class="st3" width="24.4" height="24.4"/>
		<rect x="24" y="56.3" class="st2" width="16.4" height="16.4"/>
		<path class="st0" d="M34,95V92h25.8V66.3h2.9V95H34z M1.8,95V66.3h2.9V92h25.8V95H1.8z M59.8,62.7V37H34V34h28.7v28.7H59.8z
			 M1.8,62.7V34h28.7V37H4.7v25.8H1.8z"/>
		<path class="st1" d="M5.3,91.5V37.5h53.9v53.9H5.3z M47,79.3V49.7H17.4v29.6H47z"/>
		<path class="st5" d="M9.3,87.5V41.5h45.9v45.9H9.3z M13.4,83.3H51V45.7H13.4V83.3z"/>
	</g>
	<path id="lineart_326_" class="st4" d="M17.3,79.5h30v-30h-30V79.5z M18.3,50.5h28v28h-28V50.5z M32.3,32.3H0v32.2v32.3h32.3h32.3
		V64.5V32.3H32.3z M2,34.3h28.3v2.5h-2.5H4.5V60v2.5H2V34.3z M30.3,94.8H2V66.5h2.5V69v23.3h23.3h2.5V94.8z M5.5,91.3V37.8H59v53.5
		H5.5z M62.5,94.8H34.3v-2.5h2.5H60V69v-2.5h2.5V94.8z M62.5,62.5H60V60V36.8H36.8h-2.5v-2.5h28.3V62.5z"/>
</g>
<g id="other_23_">
	<g id="colors_373_">
		<path class="st2" d="M39.6,21v-8.8h2.1v1.5h1.6v1.8h0.4v-1.8h1.7v1.8h0.4v-1.8h1.2v5.7h-5.4V21H39.6z M22.8,21v-1.5h-5.4v-5.7h1.2
			v1.8h0.4v-1.8h1.7v1.8h0.4v-1.8h1.6v-1.5h2.1V21H22.8z"/>
		<path class="st3" d="M41.1,18.7v-4.1h0.8v1.8h3.8v2.3H41.1z M18.9,18.7v-2.3h3.8v-1.8h0.8v4.1H18.9z"/>
		<rect x="26.1" y="12.3" class="st0" width="12.3" height="8.8"/>
		<rect x="26.1" y="13.7" class="st1" width="12.3" height="6"/>
		<rect x="26.1" y="15.4" class="st5" width="12.3" height="2.5"/>
	</g>
	<path id="other_24_" class="st4" d="M24.8,21v-8.6H23v1.5h-1.6v1.8h-0.7v-1.8h-1.4v1.8h-0.7v-1.8h-0.9v5.6H23V21H24.8z M38.3,21
		v-8.6h-6h-6V21h6H38.3z M46.9,19.4v-5.6H46v1.8h-0.7v-1.8h-1.4v1.8h-0.7v-1.8h-1.6v-1.5h-1.8V21h1.8v-1.5H46.9z M48.4,13.1v7.2H43
		v1.5h-3.2h-7.5h-7.5h-3.2v-1.5h-5.4v-7.2h5.4v-1.5h3.2h7.5h7.5H43v1.5H48.4z"/>
</g>
</svg>
