<?xml version="1.0" encoding="utf-8"?>
<!-- Generator: Adobe Illustrator 19.1.0, SVG Export Plug-In . SVG Version: 6.00 Build 0)  -->
<svg version="1.1" id="Calque_1" xmlns="http://www.w3.org/2000/svg" xmlns:xlink="http://www.w3.org/1999/xlink" x="0px" y="0px"
	 viewBox="0 0 137.3 171.2" style="enable-background:new 0 0 137.3 171.2;" xml:space="preserve">
<style type="text/css">
	.st0{fill:#F8F5D8;}
	.st1{fill:#577351;}
	.st2{fill:#E1EAF4;}
	.st3{fill:#797D83;}
	.st4{fill:#C5CDD4;}
	.st5{fill:#7D996D;}
	.st6{fill:#F68C2E;}
	.st7{fill:#010101;}
	.st8{fill:#ACB7C3;}
	.st9{fill:#C9DBE8;}
	.st10{fill:#E5EFFA;}
</style>
<g id="wing_63_">
	<g>
		<path class="st0" d="M15.2,139.6l1.4-1.4l2.7,2.7l2.7-2.7l1.4,1.4l-4.2,4.2L15.2,139.6z M22.9,112.4c-1.6,0-2.9-1.3-2.9-2.9
			c0-1.6,1.3-2.9,2.9-2.9c1.6,0,2.9,1.3,2.9,2.9C25.8,111.1,24.5,112.4,22.9,112.4z M17.9,82.8c-1.6,0-2.9-1.3-2.9-2.9
			c0-1.6,1.3-2.9,2.9-2.9c1.6,0,2.9,1.3,2.9,2.9C20.8,81.5,19.5,82.8,17.9,82.8z M19.4,28.6l-2.7,2.7l-1.4-1.4l4.2-4.2l4.2,4.2
			l-1.4,1.4L19.4,28.6z"/>
		<path class="st1" d="M55.5,100.2v-9H52v7.9l-6.1-4.8l-1.2-10.1L42.8,93h-4.8l-3.3-5.2v-0.3l3.8-10h6.4v-5.3h13.1v27.9H55.5z
			 M55.5,88.4v-3.6H52v3.6H55.5z M55.5,82.4v-1.6H52v1.6H55.5z M55.5,78.6V78H52v0.6H55.5z"/>
		<polygon class="st2" points="35.1,157.7 35.1,135.7 38.5,133.5 38.5,162.5 		"/>
		<path class="st3" d="M27.1,157.1v-21l-15-15v-13.7l3.9-3.9v-2.6l-3.8-2.2V88.3H33l4,6.3h6.7l9,7.2h5.2v7.6h-4.8l-6.3-8.9l-8.4,8.3
			h-11l0-0.2c-0.4-2.1-2.3-3.6-4.4-3.6c-2.5,0-4.5,2-4.5,4.5s2,4.5,4.5,4.5c2.1,0,4-1.5,4.4-3.6l0-0.2h9.4l-13.2,12.9l8.3,9l6.6-4.8
			v5.3l-4,2.5v22.6l4,5.6v3.7L27.1,157.1z M1.8,89.2l3.9,3.9v35.6l-3.9,3.9V89.2z M44.8,70.7v-3.6l7.1-5.3h5.9v8.9H44.8z"/>
		<path class="st4" d="M1.8,134.7v-1.3l4.5-4.5V92.9l-4.5-4.5v-4.1L9.5,80V54.1l-7.7-8.8V31.7l19.5,11v21.6l15.8,12.3l-0.9,2.5H22.3
			l0-0.2c-0.4-2.1-2.3-3.6-4.4-3.6c-2.5,0-4.5,2-4.5,4.5c0,2.5,2,4.5,4.5,4.5c2.1,0,4-1.5,4.4-3.6l0-0.2h13.2l-2.7,7H11.5V99
			l3.8,2.2v2l-3.9,3.9v14.2l15,15v20.2L1.8,134.7z M19.4,144.6l5-5l-2.3-2.3l-2.7,2.7l-2.7-2.7l-2.3,2.3L19.4,144.6z M37.3,76
			L21.9,64V42.3L2,31.1L33.9,3.9v12.9l-4.8,2v30.7l4.8,2v12.9l8.5,4.5l0.8-0.6V76H37.3z M16.7,32.2l2.7-2.7l2.7,2.7l2.3-2.3l-5-5
			l-5,5L16.7,32.2z"/>
		<polygon class="st2" points="34.6,5.7 3.9,32.7 3.5,43.9 1.1,45.2 1.1,30.6 34.6,2.1 		"/>
		<polygon class="st2" points="9.6,79.6 9.6,81.8 3.3,85.2 1.8,84.3 		"/>
		<polygon class="st5" points="50.2,94.6 47.2,92.4 47.2,71 50.2,71 		"/>
		<polygon class="st5" points="39.2,77.5 36.9,87 39.5,93.4 41.5,93.4 42.9,86.8 41.8,77.5 		"/>
		<polygon class="st4" points="33.7,94.6 15,94.6 15,91 31.1,91 		"/>
		<polygon class="st4" points="37.5,100.2 18.7,100.2 18.7,96.6 34.8,96.6 		"/>
		<g>
			<polygon class="st6" points="17.9,71.5 15,71.5 15,44.6 17.9,45.9 			"/>
			<polygon class="st6" points="14,71.5 12.6,71.5 12.6,43.9 14,44.9 			"/>
			<rect x="10.9" y="130" class="st6" width="7" height="1.5"/>
			<rect x="13.6" y="132.7" class="st6" width="7" height="1.5"/>
		</g>
	</g>
	<path id="lineart_224_" class="st7" d="M55.7,88.6h-3.9v-4h3.9V88.6z M55.7,80.6h-3.9v2h3.9V80.6z M55.7,77.8h-3.9v1h3.9V77.8z
		 M22.2,32.5l-2.7-2.7l-2.7,2.7l-2.6-2.6l5.3-5.3l5.3,5.3L22.2,32.5z M19.4,28.3l2.7,2.7l1.2-1.2L19.4,26l-3.9,3.9l1.2,1.2
		L19.4,28.3z M19.4,144.9l-5.3-5.3l2.6-2.6l2.7,2.7l2.7-2.7l2.6,2.6L19.4,144.9z M15.5,139.6l3.9,3.9l3.9-3.9l-1.2-1.1l-2.7,2.7
		l-2.7-2.7L15.5,139.6z M59.7,60v51.2h-7.5l-5.6-8l-20.5,20.1l6.1,6.5l8.2-5.9v47.3L0,135.5V83.3l7.7-4.4V54.8L0,46V30.4L35.7,0v18
		l-4.8,2v28.3l4.8,2v13.1l6.6,3.5l9.1-6.8H59.7z M2.3,31.1l19.8,11.1v21.7l15.3,11.9H43v-7.1l-0.6,0.4l-8.8-4.7V51.6l-4.8-2V18.7
		l4.8-2V4.3L2.3,31.1z M2,132.1l3.5-3.5V93.2L2,89.7V132.1z M26.3,136.4l-15-15V107l3.9-3.9v-1.8l-3.8-2.2V87.5h21.4l2.5-6.6H22.5
		c-0.5,2.1-2.3,3.7-4.6,3.7c-2.6,0-4.7-2.1-4.7-4.7c0-2.6,2.1-4.7,4.7-4.7c2.3,0,4.1,1.6,4.6,3.7H36l0.8-2.2L21.1,64.4V42.8L2,32
		v13.2L9.7,54v26.1L2,84.4v3.8l4.5,4.5V129L2,133.5v1.1l24.3,21.5V136.4z M17.9,77.2c-1.5,0-2.7,1.2-2.7,2.7s1.2,2.7,2.7,2.7
		c1.5,0,2.7-1.2,2.7-2.7S19.4,77.2,17.9,77.2z M38.3,133.9l-3,1.9v21.9l3,4.2V133.9z M57.7,102h-5l-9-7.2H37l-4-6.3H12.3v10l3.8,2.2
		v2.8l-3.9,3.9v13.5l15,15v21l11,9.8v-3.2l-4-5.6v-22.8l4-2.5v-4.8l-6.5,4.6l-8.6-9.3l13-12.7h-8.8c-0.5,2.1-2.3,3.7-4.6,3.7
		c-2.6,0-4.7-2.1-4.7-4.7s2.1-4.7,4.7-4.7c2.3,0,4.1,1.6,4.6,3.7h10.8l8.5-8.4l6.4,9h4.5V102z M22.9,106.8c-1.5,0-2.7,1.2-2.7,2.7
		s1.2,2.7,2.7,2.7c1.5,0,2.7-1.2,2.7-2.7S24.4,106.8,22.9,106.8z M57.7,72.5H45v5.3h-6.5l-3.7,9.8v0.2l3.2,5h4.5l2.1-9.8l1.4,11.2
		l5.7,4.5V91h3.9v9h2V72.5z M57.7,62H52l-7,5.2v3.3h12.7V62z"/>
</g>
<g id="wing_62_">
	<g>
		<path class="st0" d="M117.9,143.8l-4.2-4.2l1.4-1.4l2.7,2.7l2.7-2.7l1.4,1.4L117.9,143.8z M111.5,109.5c0-1.6,1.3-2.9,2.9-2.9
			s2.9,1.3,2.9,2.9c0,1.6-1.3,2.9-2.9,2.9S111.5,111.1,111.5,109.5z M116.5,79.9c0-1.6,1.3-2.9,2.9-2.9s2.9,1.3,2.9,2.9
			c0,1.6-1.3,2.9-2.9,2.9S116.5,81.5,116.5,79.9z M115.2,31.3l-1.4-1.4l4.2-4.2l4.2,4.2l-1.4,1.4l-2.7-2.7L115.2,31.3z"/>
		<path class="st1" d="M79.5,100.2V72.3h13.1v5.3H99l3.8,10v0.3L99.4,93h-4.8l-1.9-8.8l-1.2,10.1l-6.1,4.8v-7.9h-3.5v9H79.5z
			 M85.4,88.4v-3.6h-3.5v3.6H85.4z M85.4,82.4v-1.6h-3.5v1.6H85.4z M85.4,78.6V78h-3.5v0.6H85.4z"/>
		<polygon class="st2" points="98.8,162.5 98.8,133.5 102.2,135.7 102.2,157.7 		"/>
		<path class="st3" d="M98.8,167.2v-3.7l4-5.6v-22.6l-4-2.5v-5.3l6.6,4.8l8.3-9l-13.2-12.9h9.4l0,0.2c0.4,2.1,2.3,3.6,4.4,3.6
			c2.5,0,4.5-2,4.5-4.5s-2-4.5-4.5-4.5c-2.1,0-4,1.5-4.4,3.6l0,0.2H99l-8.4-8.3l-6.3,8.9h-4.8v-7.6h5.2l9-7.2h6.7l4-6.3h20.9v10.4
			l-3.8,2.2v2.6l3.9,3.9V121l-15,15v21L98.8,167.2z M135.5,132.6l-3.9-3.9V93.1l3.9-3.9V132.6z M79.5,70.7v-8.9h5.9l7.1,5.3v3.6
			H79.5z"/>
		<path class="st4" d="M110.8,156.6v-20.2l15-15v-14.2l-3.9-3.9v-2l3.8-2.2V87.7h-21.3l-2.7-7H115l0,0.2c0.4,2.1,2.3,3.6,4.4,3.6
			c2.5,0,4.5-2,4.5-4.5c0-2.5-2-4.5-4.5-4.5c-2.1,0-4,1.5-4.4,3.6l0,0.2h-13.8l-0.9-2.5L116,64.3V42.7l19.5-11v13.6l-7.7,8.8V80
			l7.7,4.3v4.1l-4.5,4.5v36.1l4.5,4.5v1.3L110.8,156.6z M122.9,139.6l-2.3-2.3l-2.7,2.7l-2.7-2.7l-2.3,2.3l5,5L122.9,139.6z
			 M94.1,76v-7.7l0.8,0.6l8.5-4.5V51.4l4.8-2V18.8l-4.8-2V3.9l31.9,27.2l-19.9,11.2V64L100,76H94.1z M122.9,29.9l-5-5l-5,5l2.3,2.3
			l2.7-2.7l2.7,2.7L122.9,29.9z"/>
		<polygon class="st2" points="102.7,5.7 133.4,32.7 133.9,43.9 136.2,45.2 136.2,30.6 102.7,2.1 		"/>
		<polygon class="st2" points="127.7,79.6 127.7,81.8 134,85.2 135.5,84.3 		"/>
		<polygon class="st5" points="87.1,94.6 90.2,92.4 90.2,71 87.1,71 		"/>
		<polygon class="st5" points="98.1,77.5 100.4,87 97.9,93.4 95.8,93.4 94.5,86.8 95.5,77.5 		"/>
		<polygon class="st4" points="103.6,94.6 122.4,94.6 122.4,91 106.3,91 		"/>
		<polygon class="st4" points="99.8,100.2 118.6,100.2 118.6,96.6 102.5,96.6 		"/>
		<g>
			<polygon class="st6" points="119.4,71.5 122.4,71.5 122.4,44.6 119.4,45.9 			"/>
			<polygon class="st6" points="123.3,71.5 124.8,71.5 124.8,43.9 123.3,44.9 			"/>
			<rect x="119.4" y="130" class="st6" width="7" height="1.5"/>
			<rect x="116.7" y="132.7" class="st6" width="7" height="1.5"/>
		</g>
	</g>
	<path id="lineart_223_" class="st7" d="M81.7,84.6h3.9v4h-3.9V84.6z M81.7,82.6h3.9v-2h-3.9V82.6z M81.7,78.8h3.9v-1h-3.9V78.8z
		 M112.6,29.9l5.3-5.3l5.3,5.3l-2.6,2.6l-2.7-2.7l-2.7,2.7L112.6,29.9z M120.7,31.1l1.2-1.2l-3.9-3.9l-3.9,3.9l1.2,1.2l2.7-2.7
		L120.7,31.1z M112.6,139.6l2.6-2.6l2.7,2.7l2.7-2.7l2.6,2.6l-5.3,5.3L112.6,139.6z M120.7,138.5l-2.7,2.7l-2.7-2.7l-1.2,1.1
		l3.9,3.9l3.9-3.9L120.7,138.5z M86,60l9.1,6.8l6.6-3.5V50.2l4.8-2V20l-4.8-2V0l35.7,30.4V46l-7.7,8.8v24.1l7.7,4.4v52.3L97,171.2
		v-47.3l8.2,5.9l6.1-6.5l-20.5-20.1l-5.6,8h-7.5V60H86z M103.7,4.3v12.3l4.8,2v30.9l-4.8,2v12.9l-8.8,4.7l-0.6-0.4v7.1h5.6
		l15.3-11.9V42.2L135,31.1L103.7,4.3z M135.3,89.7l-3.5,3.5v35.4l3.5,3.5V89.7z M111,156.1l24.3-21.5v-1.1l-4.5-4.5V92.8l4.5-4.5
		v-3.8l-7.7-4.3V54l7.7-8.8V32l-19.1,10.7v21.6l-15.7,12.3l0.8,2.2h13.5c0.5-2.1,2.3-3.7,4.6-3.7c2.6,0,4.7,2.1,4.7,4.7
		c0,2.6-2.1,4.7-4.7,4.7c-2.3,0-4.1-1.6-4.6-3.7h-12.8l2.5,6.6H126v11.6l-3.8,2.2v1.8l3.9,3.9v14.3l-15,15V156.1z M116.7,79.9
		c0,1.5,1.2,2.7,2.7,2.7c1.5,0,2.7-1.2,2.7-2.7s-1.2-2.7-2.7-2.7C118,77.2,116.7,78.4,116.7,79.9z M99,161.9l3-4.2v-21.9l-3-1.9
		V161.9z M79.7,109.2h4.5l6.4-9l8.5,8.4h10.8c0.5-2.1,2.3-3.7,4.6-3.7c2.6,0,4.7,2.1,4.7,4.7s-2.1,4.7-4.7,4.7
		c-2.3,0-4.1-1.6-4.6-3.7h-8.8l13,12.7l-8.6,9.3l-6.5-4.6v4.8l4,2.5V158l-4,5.6v3.2l11-9.8v-21l15-15v-13.5l-3.9-3.9v-2.8l3.8-2.2
		v-10h-20.6l-4,6.3h-6.7l-9,7.2h-5V109.2z M111.7,109.5c0,1.5,1.2,2.7,2.7,2.7c1.5,0,2.7-1.2,2.7-2.7s-1.2-2.7-2.7-2.7
		C113,106.8,111.7,108,111.7,109.5z M79.7,100h2v-9h3.9v7.7l5.7-4.5L92.6,83l2.1,9.8h4.5l3.2-5v-0.2l-3.7-9.8h-6.5v-5.3H79.7V100z
		 M79.7,70.5h12.7v-3.3l-7-5.2h-5.7V70.5z"/>
</g>
<g id="cockpit_32_">
	<g>
		<path class="st4" d="M82.5,72.6c-2-2.9-4.6-5.1-7.6-6.4l-0.1-0.1V54.9L69,49.3V35.1L90.7,62l-8,10.8L82.5,72.6z M46.7,62
			l21.7-26.9v14.2l-5.8,5.6v11.2l-0.1,0.1c-2.9,1.3-5.6,3.5-7.6,6.4l-0.2,0.2L46.7,62z"/>
		<path class="st3" d="M69.5,134.8l-1.1-0.6l2.3-1.4l-1.3-2.3l0.3,0c2.5-0.2,4-0.8,4.7-1.7c0.4-0.5,0.4-1,0.3-1.1l0-14l-0.5,0.4
			c-1.2,0.9-3.7,1.2-5.7,1.2c-1.9,0-4.4-0.3-5.6-1.2l-0.5-0.4v14c0,0.2-0.1,0.6,0.3,1.2c0.7,0.9,2.3,1.4,4.7,1.7l0.1,0l1,1.8
			l-3.4,2.1l2.7,1.4v3.3l-0.3-0.1c-5.3-2.6-10.3-6.1-15-10.3l-0.2-0.1l4-3.9l-0.2-0.2c-8.9-8.4-15.2-19.5-15.9-20.7l-0.1-0.3
			l-5.1,2.1l-0.1-0.2c-1.9-3.9-3.2-7.5-3.6-10.3c-0.4-2.4-0.1-4.2,0.8-4.9c2.2-1.7,5.7-2.6,10.3-2.6c3.7,0,7.1,0.6,8.4,0.8l0.1,0
			l0,0.1c0.1,0.9,0.3,1.8,0.5,2.7l0,0.1l-3,1.7l3,5.2l2.1-1.4l0.1,0.2c1.4,2.6,3.3,4.8,5.5,6.4l0.1,0.1l-1,2.5l3.5,2.6l2.7-2.6
			l0.1,0c1.3,0.4,2.7,0.6,4,0.6c1.3,0,2.7-0.2,4-0.6l0.1,0l2.7,2.6l3.5-2.6l-1-2.5l0.1-0.1c2.2-1.6,4.1-3.9,5.5-6.4l0.1-0.2l2.1,1.4
			l3-5.2l-3-1.7l0-0.1c0.2-0.9,0.4-1.8,0.5-2.7l0-0.1l0.1,0c1.3-0.2,4.7-0.8,8.4-0.8c4.7,0,8.2,0.9,10.3,2.6
			c0.9,0.7,1.2,2.4,0.8,4.9c-0.4,2.8-1.7,6.4-3.6,10.3l-0.1,0.2l-5.1-2.1l-0.1,0.2c-0.1,0.1-6.6,11.9-15.9,20.8l-0.2,0.2l4,3.9
			l-0.2,0.1c-4.7,4.3-9.7,7.7-15,10.3l-0.3,0.1V134.8z M56.8,99c-2.8-3.6-4.4-8.3-4.4-13.2c0-2.4,0.4-4.7,1.1-6.9l0.1-0.2l3.6,1.4
			v19.4L56.8,99z M80.1,80.1l3.6-1.4l0.1,0.2c0.7,2.2,1.1,4.6,1.1,6.9c0,4.9-1.6,9.6-4.4,13.2l-0.4,0.5V80.1z"/>
		<path class="st2" d="M81.8,124.5l0.1-0.1c8.6-8.3,14.8-19,15.5-20.2l0.1-0.2l4.6,1.9l-0.1,0.2c-4,7.8-9.8,15.5-16.5,21.7l-0.1,0.1
			L81.8,124.5z M51.9,127.9c-6.7-6.2-12.5-13.9-16.5-21.7l-0.1-0.2l4.6-1.9l0.1,0.2c1.1,1.9,7.1,12.1,15.5,20.2l0.1,0.1L52,128
			L51.9,127.9z"/>
		<path class="st1" d="M68.7,129.9c-3.5-0.2-4.8-0.9-5.3-1.5c-0.3-0.3-0.3-0.6-0.3-0.7l0-9.4l0.3,0.1c2.1,0.6,3.7,0.9,5.3,0.9
			c1.6,0,3.2-0.3,5.3-0.9l0.3-0.1l0,9.4c0,0,0,0.3-0.3,0.6C73.5,129,72.2,129.7,68.7,129.9L68.7,129.9L68.7,129.9z M86.5,86.2
			c0-0.2,0-0.3,0-0.5c0-4-1-8-2.9-11.4l-0.1-0.1l2.7-3.7l0.2,0.2c1.3,1.6,4.4,6.1,5.8,15l0,0.2l-0.2,0c-1.7,0.1-3.6,0.3-5.4,0.6
			l-0.2,0L86.5,86.2z M50.7,86.7c-1.8-0.3-3.6-0.5-5.4-0.6l-0.2,0l0-0.2c1.3-8.9,4.5-13.5,5.8-15l0.2-0.2l2.7,3.7l-0.1,0.1
			c-1.9,3.4-2.9,7.4-2.9,11.4c0,0.1,0,0.2,0,0.3c0,0.1,0,0.2,0,0.4v0.2L50.7,86.7z M73.9,65.7c-1.7-0.6-3.5-1-5.3-1
			c-1.8,0-3.6,0.4-5.3,1l-0.3,0.1V55.1l5.5-5.3l5.5,5.3v10.7L73.9,65.7z"/>
		<polygon class="st2" points="47.8,64.2 67.1,40.4 67.1,51 68.7,49.5 70.3,51.1 70.3,40.4 89.7,64.2 91.1,61.7 68.7,33.4 
			45.6,61.5 		"/>
		<path class="st4" d="M62.7,124.6c0,0-14.4-10-14.8-14.5c-0.3-4.5-5.5-9.4-7.5-10.6c-2-1.2-2.5-9.6-2.5-9.6s-8-0.3-6.7,7.1
			l-0.8-0.4c0,0-1.6-7.1,2.9-8.1s13-1.8,13-1.8s-1.9,11.5,2.1,14.2c4,2.7,3.1,5,3.8,7.3c0.7,2.3,8.1,6.8,10.5,7V124.6z M67.6,134.4
			c-5.6-0.5-13.1-7.7-13.1-7.7l-2.4,2.4c1.1,1.3,16.2,10.8,16.2,10.8L67.6,134.4z"/>
		<path class="st4" d="M74.7,115.1c2.4-0.2,9.8-4.8,10.5-7c0.7-2.3-0.3-4.6,3.8-7.3c4-2.7,2.1-14.2,2.1-14.2s8.5,0.8,13,1.8
			s2.9,8.1,2.9,8.1l-0.8,0.4c1.4-7.4-6.7-7.1-6.7-7.1s-0.5,8.4-2.5,9.6c-2,1.2-7.2,6.1-7.5,10.6c-0.3,4.5-14.8,14.5-14.8,14.5V115.1
			z M69,140c0,0,15.2-9.5,16.3-10.8l-2.4-2.4c0,0-7.5,7.2-13.1,7.7L69,140z"/>
		<g>
			<path class="st5" d="M68.7,118.8c-1.6,0-3.3-0.3-5.4-1l-0.1,0l0-3.1l0.3,0.1c1.3,0.6,3.2,0.9,5.3,0.9c2,0,3.9-0.3,5.2-0.9
				l0.3-0.1l0,3.1l-0.1,0C72,118.5,70.3,118.8,68.7,118.8z M73.4,106l0.3-0.1c1.2-0.4,2.4-1,3.5-1.8l0.2-0.1l0.8,1.9l-2.7,2
				L73.4,106z M59.1,105.9l0.8-1.9l0.2,0.1c1.1,0.7,2.3,1.3,3.5,1.8l0.3,0.1l-2.1,2L59.1,105.9z M49.4,93.3l2.3-1.3l0.1,0.2
				c0.4,1.3,0.9,2.7,1.5,3.9l0.1,0.2l-1.6,1L49.4,93.3z M84,96.4l0.1-0.2c0.6-1.3,1.1-2.6,1.5-3.9l0.1-0.2l2.3,1.3l-2.4,4.1L84,96.4
				z"/>
			<rect x="64.4" y="118.8" class="st5" width="1.9" height="10.9"/>
			<rect x="70.2" y="118.8" class="st5" width="2.8" height="10.9"/>
			<path class="st5" d="M52.2,71.2c0,0-4.1,5.3-5.5,15.8h1.6c0,0,1.4-11.1,5.1-14.2L52.2,71.2z"/>
			<path class="st5" d="M85.1,71.2c0,0,4.1,5.3,5.5,15.8H89c0,0-1.4-11.1-5.1-14.2L85.1,71.2z"/>
			<polygon class="st5" points="65.9,65.8 65.9,56.1 68.7,53.3 71.4,56.1 71.4,65.8 			"/>
		</g>
		<path class="st8" d="M68.7,105.2c-4,0-7.8-1.8-10.8-5.1l-0.1-0.1V79.7l-4-1.6l0.1-0.2c2.6-6.9,8.4-11.5,14.8-11.6
			c6.4,0.1,12.2,4.6,14.8,11.6l0.1,0.2l-4,1.6v20.4l-0.1,0.1C76.5,103.4,72.7,105.2,68.7,105.2z"/>
		<path class="st9" d="M68.7,102.2c-2.8,0-5.6-1.2-7.9-3.4V77.6l-2.9-1.2c2.4-4.3,6.5-7.1,10.9-7.1c4.3,0.1,8.3,2.8,10.8,7.1
			l-2.9,1.2v21.2C74.2,101,71.5,102.2,68.7,102.2z"/>
		<path class="st10" d="M68.7,69.3c-4.3,0.1-8.4,2.8-10.8,7.1l2.9,1.2v21.3c2.3,2.1,5.1,3.3,7.9,3.4c0,0,0,0,0,0V69.3z"/>
	</g>
	<path id="lineart_219_" class="st7" d="M106.3,88.7c1.4,1.1,1.9,3.3,1.5,6.5c-1.7,11.1-16.4,36-39.1,46.2
		C46,131.2,31.3,106.4,29.6,95.3c-0.5-3.2,0-5.4,1.4-6.5c3.2-2.5,8-3,12.3-3c1.5-10,5-14.9,6.5-16.5L44.4,62l24.3-30.1L92.9,62
		l-5.4,7.3c1.5,1.7,5.1,6.5,6.5,16.5C98.3,85.7,103.1,86.3,106.3,88.7z M105.8,95c0.3-2.3,0.1-4-0.7-4.7c-5-3.9-15.9-2.2-18.6-1.7
		c-0.1,0.9-0.3,1.8-0.5,2.8l3,1.7l-3.2,5.6l-2.1-1.4c-1.4,2.6-3.3,4.8-5.6,6.5l1,2.5l-3.7,2.8l-2.8-2.6c-1.3,0.4-2.7,0.6-4,0.6
		c-1.4,0-2.7-0.2-4-0.6l-2.8,2.6l-3.7-2.8l1-2.5c-2.2-1.7-4.1-3.9-5.6-6.5l-2,1.4L48.3,93l3-1.7c-0.2-0.9-0.4-1.8-0.5-2.8
		c-2.7-0.5-13.5-2.2-18.6,1.7c-0.8,0.6-1.1,2.3-0.7,4.7c0.4,2.7,1.6,6.3,3.6,10.2l5.1-2.1l0.2,0.4c0.1,0.1,6.6,11.9,15.9,20.7
		l0.4,0.4l-4,3.9c4.4,4,9.4,7.6,14.9,10.3v-2.9l-2.9-1.5l3.6-2.2l-0.8-1.5c-2.5-0.3-4.1-0.8-4.8-1.7c-0.4-0.6-0.4-1.1-0.4-1.3v-14.4
		l0.8,0.6c2.1,1.5,9,1.5,11.1,0l0.8-0.6v14.4c0,0.2,0.1,0.7-0.4,1.3c-0.7,0.9-2.4,1.5-4.9,1.7l1.2,2.2l-2.2,1.3l0.9,0.5v4.1
		c5.5-2.7,10.5-6.3,14.9-10.3l-4-3.9l0.4-0.4c9.3-8.8,15.8-20.6,15.9-20.7l0.2-0.4l5.1,2.1C104.1,101.2,105.3,97.7,105.8,95z
		 M101.7,106.1l-4.2-1.8c-1.2,2.1-7.2,12.2-15.5,20.2l3.3,3.2C92.6,120.9,98.2,112.9,101.7,106.1z M90.4,62L69.2,35.7v13.5l5.8,5.6
		V66c3,1.4,5.7,3.6,7.6,6.5L90.4,62z M92,85.9c-1.3-8.7-4.3-13.3-5.7-14.9l-2.5,3.4c1.8,3.3,2.9,7.3,2.9,11.5c0,0.2,0,0.5,0,0.7
		C87.8,86.3,89.7,86,92,85.9z M85.5,97.1l2.1-3.8l-1.9-1c-0.4,1.4-0.9,2.7-1.5,4L85.5,97.1z M84.7,85.8c0-2.4-0.4-4.7-1.1-6.9
		l-3.3,1.3v18.7C83,95.4,84.7,90.8,84.7,85.8z M79.3,79.5l3.9-1.6c-2.5-6.7-8.1-11.4-14.6-11.4c-6.5,0.1-12.1,4.8-14.6,11.4l3.9,1.6
		V100c2.8,3.1,6.6,4.9,10.7,5c4.1-0.1,7.8-1.9,10.7-5V79.5z M78,105.9l-0.6-1.6c-1.1,0.7-2.3,1.3-3.5,1.8l1.7,1.6L78,105.9z
		 M73.8,128.3c0.3-0.3,0.2-0.5,0.2-0.5l0-9.1c-4.1,1.2-6.6,1.2-10.7,0l0,9.1c0,0,0,0.2,0.2,0.5c0.4,0.4,1.6,1.2,5.1,1.4
		C72.3,129.5,73.4,128.8,73.8,128.3z M74,117.7l0-2.6c-2.9,1.2-7.8,1.2-10.7,0l0,2.6C67.4,118.9,70.1,118.9,74,117.7z M74,65.5V55.2
		l-5.3-5.1l-5.3,5.1v10.3c1.7-0.6,3.5-1,5.3-1C70.5,64.5,72.3,64.9,74,65.5z M68.2,49.2V35.7L46.9,62l7.8,10.4
		c2-2.9,4.6-5.1,7.6-6.5V54.8L68.2,49.2z M61.8,107.7l1.7-1.6c-1.3-0.5-2.4-1.1-3.6-1.8l-0.6,1.6L61.8,107.7z M57,98.8V80.2
		l-3.3-1.3c-0.7,2.1-1.1,4.4-1.1,6.9C52.7,90.8,54.3,95.4,57,98.8z M52,127.7l3.3-3.2c-8.3-8-14.3-18.1-15.5-20.2l-4.2,1.8
		C39.1,112.9,44.7,120.9,52,127.7z M53.6,74.3L51,70.9c-1.4,1.7-4.4,6.2-5.7,14.9c2.3,0.2,4.2,0.4,5.4,0.6c0-0.2,0-0.5,0-0.7
		C50.7,81.5,51.7,77.6,53.6,74.3z M51.8,97.1l1.2-0.8c-0.6-1.3-1.1-2.6-1.5-4l-1.9,1L51.8,97.1z"/>
</g>
</svg>
