<?xml version="1.0" encoding="utf-8"?>
<!-- Generator: Adobe Illustrator 19.1.0, SVG Export Plug-In . SVG Version: 6.00 Build 0)  -->
<svg version="1.1" id="Calque_1" xmlns="http://www.w3.org/2000/svg" xmlns:xlink="http://www.w3.org/1999/xlink" x="0px" y="0px"
	 viewBox="0 0 42.5 100" style="enable-background:new 0 0 42.5 100;" xml:space="preserve">
<style type="text/css">
	.st0{fill:#F8F5D8;}
	.st1{fill:#E0312E;}
	.st2{fill:#F15A47;}
	.st3{fill:#516773;}
	.st4{fill:#6C8A9A;}
	.st5{fill:#F58F90;}
	.st6{fill:#010101;}
</style>
<g id="weapon_159_">
	<g id="colors_472_">
		<path class="st0" d="M21.3,49.3l3.9,3.9L24.3,54L21.3,51L18.2,54l-0.8-0.8L21.3,49.3z M21.3,43.2l3.1,3.1l0.8-0.8l-3.9-3.9
			l-3.9,3.9l0.8,0.8L21.3,43.2z"/>
		<path class="st1" d="M21.3,36.4h-4.9l-6.7,4.8v1.1c2,0.3,3.7,1.6,4.5,3.4c0.4,0.8,0.6,1.7,0.6,2.7c0,3-2.2,5.5-5.1,6v4.2h11.6
			h11.6v-4.2c-2.9-0.5-5.1-3-5.1-6c0-0.8,0.1-1.5,0.4-2.2c0.8-2,2.5-3.5,4.7-3.9v-1.1l-6.7-4.8H21.3z M24.3,55.4l-3.1-3.1l-3.1,3.1
			l-2.2-2.3l5.3-5.3l5.3,5.3L24.3,55.4z M24.3,47.7l-3.1-3.1l-3.1,3.1l-2.2-2.3l5.3-5.3l5.3,5.3L24.3,47.7z M2,66.5l7.1,4.2V85
			L2,89.3v-4.9l3.5-3.8v-9.4H2V66.5z M37,71.1v9.4l3.5,3.8v4.9L33.4,85V70.7l7.1-4.2v4.6H37z"/>
		<path class="st2" d="M2,72.1h2.5v8.1L2,82.9V72.1z M38,72.1v8.1l2.5,2.7V72.1H38z M17.3,82h-6.2v3.1l7.2,6h2.4v-5.7
			C18.9,85.2,17.5,83.8,17.3,82z M21.8,85.4v5.7h2.4l7.2-6V82h-6.2C25,83.8,23.5,85.2,21.8,85.4z M11.1,71.1V81h6.2
			c0.3-2,1.9-3.5,4-3.5c2,0,3.7,1.5,3.9,3.5h6.2v-9.9H21.3H11.1z"/>
		<path class="st3" d="M39.5,91l-13.1,7h-5.1h-5.1L3,91l7-4.1l7.6,6.3h3.6h3.6l7.6-6.3L39.5,91z"/>
		<path class="st4" d="M9.6,52.2v-8c1.8,0.4,3.1,2.1,3.1,4C12.8,50.2,11.4,51.8,9.6,52.2z M32.9,52.2v-8c-1.8,0.4-3.1,2.1-3.1,4
			C29.8,50.2,31.1,51.8,32.9,52.2z M33.6,60.5H21.3H8.9l-6.1,4.2l7.5,4.4h10.8h10.8l7.5-4.4L33.6,60.5z M21.3,8h6.2L28,7.5V2h-6.8
			h-6.8v5.5L15,8H21.3z M15.6,24.5v9.9l0.1,0h5.6h5.6l0,0V10h-5.6h-5.6v3.5h2.8v1h-2.8v4h2.8v1h-2.8v4h2.8v1H15.6z"/>
		<rect x="14.1" y="6.5" class="st3" width="14.6" height="2.2"/>
		<rect x="14.8" y="9.4" class="st3" width="2.6" height="25.6"/>
		<rect x="25.1" y="9.4" class="st3" width="2.8" height="25.6"/>
		<polygon class="st3" points="30,66.3 12.5,66.3 8.4,59.3 34.3,59.3 		"/>
		<polygon class="st4" points="27.5,65 15.1,65 12.2,60 30.5,60 		"/>
		<polygon class="st4" points="18.5,98.9 16,98.9 17.6,92.9 24.7,92.4 26.5,98.4 		"/>
		<polygon class="st5" points="12.2,39 31.9,39 27.2,35.6 15.4,35.6 		"/>
		<rect x="10.7" y="70.6" class="st5" width="20.9" height="2.4"/>
		<circle class="st5" cx="21.2" cy="81.3" r="5"/>
	</g>
	<path id="weapon_160_" class="st6" d="M21.3,44.6l3.1,3.1l2.2-2.3l-5.3-5.3l-5.3,5.3l2.2,2.3L21.3,44.6z M21.3,41.5l3.9,3.9
		l-0.8,0.8l-3.1-3.1l-3.1,3.1l-0.8-0.8L21.3,41.5z M24.3,55.4l2.2-2.3l-5.3-5.3l-5.3,5.3l2.2,2.3l3.1-3.1L24.3,55.4z M17.4,53.2
		l3.9-3.9l3.9,3.9L24.3,54L21.3,51L18.2,54L17.4,53.2z M34.9,59V40.1l-6-4.3V9.4L30,8.3V0h-8.8h-8.8v8.3l1.1,1.1v26.4l-6,4.3V59
		L0,64.2v27.4l15.6,8.4h5.6h5.6l15.6-8.4V64.2L34.9,59z M14.5,2h6.8H28v5.5L27.5,8h-6.2H15l-0.5-0.5V2z M15.6,23.5v-4h2.8v-1h-2.8
		v-4h2.8v-1h-2.8V10h5.6h5.6v24.4l0,0h-5.6h-5.6l-0.1,0v-9.9h2.8v-1H15.6z M9.6,44.3c1.8,0.4,3.1,2.1,3.1,4c0,1.9-1.3,3.5-3.1,4
		V44.3z M9.6,54.3c2.9-0.5,5.1-3,5.1-6c0-1-0.2-1.9-0.6-2.7c-0.9-1.8-2.5-3.1-4.5-3.4v-1.1l6.7-4.8h4.9h4.9l6.7,4.8v1.1
		c-2.2,0.4-4,1.9-4.7,3.9c-0.3,0.7-0.4,1.4-0.4,2.2c0,3,2.2,5.5,5.1,6v4.2H21.3H9.6V54.3z M32.9,44.3v8c-1.8-0.4-3.1-2.1-3.1-4
		C29.8,46.3,31.1,44.7,32.9,44.3z M8.9,60.5h12.3h12.3l6.1,4.2l-7.5,4.4H21.3H10.4l-7.5-4.4L8.9,60.5z M25.2,81
		c-0.3-2-1.9-3.5-3.9-3.5c-2,0-3.7,1.5-4,3.5h-6.2v-9.9h10.1h10.1V81H25.2z M31.4,82v3.1l-7.2,6h-2.4v-5.7c1.8-0.2,3.2-1.7,3.4-3.4
		H31.4z M20.8,85.4v5.7h-2.4l-7.2-6V82h6.2C17.5,83.8,18.9,85.2,20.8,85.4z M2,72.1h2.5v8.1L2,82.9V72.1z M2,84.4l3.5-3.8v-9.4H2
		v-4.6l7.1,4.2V85L2,89.3V84.4z M26.4,98h-5.1h-5.1L3,91l7-4.1l7.6,6.3h3.6h3.6l7.6-6.3l7,4.1L26.4,98z M40.5,82.9L38,80.2v-8.1h2.5
		V82.9z M40.5,71.1H37v9.4l3.5,3.8v4.9L33.4,85V70.7l7.1-4.2V71.1z"/>
</g>
</svg>
