<svg xmlns="http://www.w3.org/2000/svg" viewBox="0 0 343.48 153.06"><defs><style>.cls-1{fill:#fff8d4;}.cls-2{fill:#6c8a99;}.cls-3{fill:#fdb31e;}.cls-4{fill:#506772;}.cls-5{fill:#fdd32c;}.cls-6{fill:#fde06f;}.cls-7{fill:#fff;}.cls-8{fill:#3c9e97;}.cls-9{fill:#60beb7;}.cls-10{fill:#6bd4cc;}</style></defs><title>Asset 2</title><g id="Layer_2" data-name="Layer 2"><g id="medium"><g id="weapon"><g id="colors"><circle class="cls-1" cx="107.27" cy="99.74" r="3.37" transform="translate(-0.81 0.88) rotate(-0.47)"/><path class="cls-2" d="M115.6,103.69l-.08-10.35,5.21-3.49.14,17.65ZM117,74.29c-.32-5.5-1.83-9.6-4.48-12.21a9.74,9.74,0,0,0-5.15-2.7l-.16,0V57.51l.23,0a11.7,11.7,0,0,1,6.5,3.19c2.83,2.78,4.34,7.09,4.46,12.81v.1l-1.37,1Z"/><path class="cls-3" d="M98.95,42.35l12.82-10.48.14,17.86-6.34.05.26,32.62,6.3-5.05,0,5.43-12.83,9Zm8.4,29.12,0-3.4,2.57,0,0,3.4Z"/><polygon class="cls-4" points="103.33 8.97 108.7 4.29 108.75 10.26 107.09 10.27 107.09 10.87 108.75 10.86 108.77 13.43 107.11 13.44 107.12 14.04 108.78 14.03 108.8 16.59 107.14 16.6 107.14 17.2 108.8 17.19 108.82 19.76 107.16 19.77 107.17 20.37 108.83 20.36 108.85 22.93 107.19 22.94 107.19 23.54 108.85 23.53 108.92 32.12 103.56 36.51 103.33 8.97"/><path class="cls-5" d="M102,109.65l-7.55-6.34L94.27,82l3.4,0,.11,12.89,16-11.24,0-4.51L120.6,74l.12,15.1L114.92,93l.09,11,5.88,4.24v1.25Zm5.25-13.87a4,4,0,1,0,4,3.94A4,4,0,0,0,107.24,95.77Z"/><polygon class="cls-6" points="103.83 89.53 101.07 90.85 100.66 40.09 103.41 37.98 103.83 89.53"/><polygon class="cls-6" points="112.99 50.44 109.79 50.47 109.64 33 112.83 30.58 112.99 50.44"/><polygon class="cls-2" points="109.64 33 107.86 34.11 107.61 3.46 109.41 3.45 109.64 33"/><polygon class="cls-3" points="94.17 103.21 97.8 103.18 103.21 107.64 121.58 107.49 121.61 110.6 101.23 110.77 94.18 103.95 94.17 103.21"/><polygon class="cls-4" points="117.44 94.54 117.51 103.02 119.87 104.77 119.77 92.59 117.44 94.54"/></g><path id="lineart" d="M107.24,95.57a4.16,4.16,0,1,0,4.2,4.14A4.16,4.16,0,0,0,107.24,95.57Zm.06,7.33a3.16,3.16,0,1,1,3.14-3.18A3.17,3.17,0,0,1,107.3,102.9Zm12.87-30.79c-.36-5.54-2-9.81-5-12.7a13.43,13.43,0,0,0-7.77-3.68l0-4.17,6.34-.05-.19-23.42-2.82,2.3-.24-30-8.94,7.78.24,29.56L97.14,41.5l.31,38.65-5,0,.19,24,8.69,7.3,21.37-.17-.33-40.79Zm-6.35-11.24c2.8,2.75,4.28,7,4.4,12.67l-1,.73c-.33-5.53-1.84-9.68-4.54-12.34a10,10,0,0,0-5.25-2.76V57.74A11.5,11.5,0,0,1,113.82,60.88ZM107.6,78.67l0-5.4,4.17,0-.06-7-4.17,0,0-5.06c2.28.5,7.58,2.93,7.83,14.51l-1.36,1,0-3.11Zm-.06-7.4,0-3,2.17,0,0,3Zm-4-62.21,5-4.33,0,5.33h-1.66v1h1.66l0,2.17h-1.66v1h1.66l0,2.16h-1.66v1h1.66l0,2.17H107v1h1.66l0,2.17H107v1h1.66l.07,8.3-5,4.06ZM99.15,42.45,111.57,32.3l.14,17.24-6.34.05.13,16.7.06,7,.08,9.53,6.3-5.05,0,4.91L99.54,91.4Zm21.53,64.66-4.87-3.52-.08-10.14,4.81-3.22ZM120.53,89l-5.81,3.89.09,11.19,5.88,4.24v.95l-18.63.15-7.42-6.23-.17-21,3,0,.11,13.07L114,83.71l0-4.51,6.46-4.77Z"/></g><g id="weapon-2" data-name="weapon"><g id="colors-2" data-name="colors"><circle class="cls-1" cx="236.33" cy="99.3" r="3.37" transform="matrix(1, -0.01, 0.01, 1, -0.8, 1.92)"/><path class="cls-2" d="M222.86,107.28l-.14-17.65L228,93l.08,10.35Zm3.28-32.89-1.38-1v-.1c0-5.72,1.46-10.06,4.25-12.88a11.69,11.69,0,0,1,6.45-3.3l.23,0,0,1.84-.16,0a9.74,9.74,0,0,0-5.1,2.79c-2.61,2.65-4,6.78-4.28,12.28Z"/><path class="cls-3" d="M244.13,91.21l-13-8.79,0-5.43,6.38,4.95-.27-32.62-6.34.05-.14-17.86,13,10.27ZM233.23,71.06l0-3.4,2.57,0,0,3.4Z"/><polygon class="cls-4" points="238.8 8.48 233.36 3.89 233.41 9.86 235.07 9.84 235.07 10.44 233.41 10.46 233.43 13.03 235.09 13.01 235.1 13.61 233.44 13.63 233.46 16.19 235.12 16.17 235.12 16.77 233.46 16.79 233.48 19.36 235.14 19.34 235.15 19.94 233.49 19.96 233.51 22.53 235.17 22.51 235.18 23.11 233.51 23.13 233.59 31.72 239.02 36.02 238.8 8.48"/><path class="cls-5" d="M222.87,109.27V108l5.8-4.34-.09-11-5.87-3.79-.12-15.1,6.94,5,0,4.5,16.19,11-.11-12.89,3.4,0,.17,21.33-7.44,6.46Zm9.49-9.94a4,4,0,1,0,3.94-4A4,4,0,0,0,232.36,99.34Z"/><polygon class="cls-6" points="239.61 89.04 242.39 90.31 241.98 39.55 239.19 37.48 239.61 89.04"/><polygon class="cls-6" points="229.81 50.1 233.02 50.08 232.88 32.61 229.65 30.24 229.81 50.1"/><polygon class="cls-2" points="232.88 32.61 234.68 33.69 234.43 3.04 232.64 3.06 232.88 32.61"/><polygon class="cls-3" points="249.49 102.56 245.87 102.59 240.53 107.14 222.15 107.29 222.18 110.4 242.55 110.23 249.5 103.3 249.49 102.56"/><polygon class="cls-4" points="226.08 94.27 226.15 102.75 223.82 104.54 223.72 92.35 226.08 94.27"/></g><path id="lineart-2" data-name="lineart" d="M232.17,99.34a4.16,4.16,0,1,0,4.13-4.2A4.17,4.17,0,0,0,232.17,99.34Zm1,0a3.16,3.16,0,1,1,3.2,3.13A3.17,3.17,0,0,1,233.17,99.33Zm-12.41-29,.33,40.79,21.37-.17,8.57-7.44-.2-24-5,0-.31-38.65-4.69-3.71-.24-29.56L231.53,0l.24,30-2.86-2.26.19,23.42,6.34-.05,0,4.17a13.42,13.42,0,0,0-7.71,3.8c-2.92,2.93-4.51,7.24-4.78,12.78Zm14.74-13v1.44a10,10,0,0,0-5.21,2.84c-2.66,2.7-4.1,6.88-4.34,12.42l-1-.71c0-5.66,1.44-10,4.2-12.74A11.5,11.5,0,0,1,235.49,57.31Zm-6.21,16,0,3.11-1.38-1c.06-11.58,5.33-14.09,7.59-14.63l0,5.06-4.17,0,.06,7,4.17,0,0,5.4Zm4.15-2.43,0-3,2.17,0,0,3Zm5.38-35.25-5-4-.07-8.3h1.66v-1h-1.66l0-2.17h1.66v-1h-1.66l0-2.17h1.66V16h-1.66l0-2.16h1.66v-1h-1.66l0-2.17h1.66v-1h-1.66l0-5.33,5,4.25Zm5.11,55.23-12.57-8.52,0-4.91,6.38,4.95-.08-9.53-.06-7-.13-16.7-6.34.05-.14-17.24,12.58,9.95Zm-21-.83,4.87,3.14.08,10.14-4.81,3.6Zm-.13-15.8,6.54,4.67,0,4.51L246,94.63l-.11-13.07,3,0,.17,21-7.32,6.35-18.63.15v-.95l5.81-4.34-.09-11.19-5.87-3.79Z"/></g><g id="wing"><g id="colors-3" data-name="colors"><path class="cls-1" d="M117.58,111a3.39,3.39,0,1,1,3.39-3.39A3.39,3.39,0,0,1,117.58,111Zm-6.19-11.23a3.39,3.39,0,1,1,3.39-3.39A3.39,3.39,0,0,1,111.39,99.82Z"/><path class="cls-3" d="M166.27,131.57h-6l-5.3-8.33H109.62l-4.88,8.33H88.38l3.56-3.07h10.44l5.38-10.66h3.7l-3.15-6.21,12.18,7.46h33.89l6.58,8,5.3-1.21Zm-12.55-23.19-.25-.07a38.73,38.73,0,0,0-15.09-1.62l-.55.07,10.83-11.36.14.12c1.83,1.54,4.91,5.23,4.92,12.6ZM139.61,88.79l-2.93,3-1.61-1.69,3-3Zm-2-2.09-3,3-4.91-5.18,3.2-2.87ZM116.8,82.79l-5.53,5.07H97.68l-7,9.38H79.79l-4-6.67H42.36l-1.19,2.16H7.74L22.16,75.84h6.16l5.33,10.72h15.2l3.77-3.77Z"/><path class="cls-5" d="M166.27,125.3l-5.08,1.15-6.52-8h-34L113.41,114l-5.61-3.43L101,97.24H91.42L98,88.46h13.53l21-19.24,7.05,7.87,7.91-6.75L158.25,83,133,109.51l2.72-.71c10.3-2.69,23.51,2.82,30.47,6.33l.11.06ZM133,80.82l-13.38,12,8.17,9.11,12.66-13.14Zm-18.19,31a5,5,0,1,0-2.2-4.13A5,5,0,0,0,114.79,111.79Zm-3.4-10.37a5,5,0,1,0-5-5A5,5,0,0,0,111.39,101.42Zm35.69-31.55-7.47,6.37-7.08-7.87L117.47,82.19H52.37L48.59,86H34L28.69,75.24h-6L43.2,51.17h88ZM90.33,61,83,69.59H102.2l7.37-8.6ZM66.4,61,59,69.59H78.26L85.63,61ZM42.46,61l-7.37,8.6H54.32L61.7,61Zm62.84,60.39L102,127.9H91.71l-4.25,3.67H81.11l2.15-3.74L89,121.38ZM40.84,93.33l-2.15,3.91H3.9l3.33-3.91Z"/><path class="cls-4" d="M171,131.57h-4.16V115.51l.29.15c1.79.93,3.13,1.71,3.77,2.1l.1.06ZM158.46,110l-.26-.1c-.89-.33-1.82-.65-2.75-1l-.14,0v-.15c0-.19,0-.39,0-.58,0-7.92-3.39-12-5.41-13.75l-.16-.14,1.75-1.83.14.1c1.6,1.18,6.83,5.85,6.83,16.49C158.48,109.22,158.46,110,158.46,110Zm-.09,21.62H144.84v-6.73h9.25Zm-14.13,0H129.61v-6.73h14.63Zm-8-39.31L127.79,101l-7.35-8.19,8.84-7.93ZM129,131.57H114.38v-6.73H129Zm-12.81-82H92.13v-3.4H116.2Zm-2.42,82H106.6l3.93-6.73h3.24Zm-6.68-13.73-1.49,2.94H89.55l2.64-2.94Zm-1-55.25L101.46,68h-15l4.62-5.4Zm-23.94,0L77.52,68h-15l4.63-5.4Zm-7.45-13H61.55l.14-.29c.87-1.83,3.52-3.11,6.44-3.11s5.56,1.28,6.44,3.11Zm-16.49,13L53.58,68h-15l4.63-5.4Z"/><path class="cls-2" d="M154.87,103.38a17.32,17.32,0,0,0-2.47-6.16,3.57,3.57,0,0,0,2.24-1.6,18,18,0,0,1,1.5,2.49l1.12,2.73a23.35,23.35,0,0,1,.8,3.22C157.15,103.53,155.62,102.8,154.87,103.38Zm12,23.17c.69-.12,3.1-.44,4.16.87v-7.83c-.59.66-2.82,2.94-4.16,1.33Zm-22-1.71v6.73h1.29v-6.73Zm-30.46,0v6.73h1.38v-6.73ZM130,85.63l-.66-.7-8.84,7.93,6.7,7.47L121.93,93Zm-.35,39.21v6.73H131v-6.73ZM43.2,62.59l-.11.13L43.84,64H57l1.21-1.41Zm52.48-13h6v-3.4h-6Zm16.17,0v-3.4h-3.33v3.4Zm-20.67,13L92,64h12.87l1.21-1.41Zm-29-14.11c1.1.22,3.39.5,4.87-.48a1.09,1.09,0,0,0,.31-1.79A7.55,7.55,0,0,0,62.23,48.48Zm4.91,14.11,0,0L67.93,64h13l1.21-1.41Z"/><path class="cls-3" d="M136.18,107.83l-3.84,2.05s11.5-1.39,19.17,3.61,8.83,5.83,9.67,4.67,5,2.29,5.33,5.33l-.17-6.67S150.18,109.67,136.18,107.83Z"/><polygon class="cls-3" points="131.06 51.37 131.06 54.92 154.38 83.17 132.34 109.89 158.88 83.17 132.34 51.17 131.06 51.37"/><polygon class="cls-7" points="130.01 66.5 116.26 78.83 108 78.83 110.18 76.33 115.76 76.33 126.76 66.5 130.01 66.5"/><polygon class="cls-7" points="128.43 61.58 114.68 73.92 106.42 73.92 108.59 71.42 114.18 71.42 125.18 61.58 128.43 61.58"/><polygon class="cls-7" points="48.01 83.17 51.82 78.83 33.13 78.83 35.13 83.17 48.01 83.17"/></g><path id="lineart-3" data-name="lineart" d="M78,133.37h94.81V116.82l-.47-.29a80.24,80.24,0,0,0-12.1-6.09c0-.49,0-1,0-1.46,0-10.87-5.12-16-7.39-17.77l7.77-8.14L132,49.37H118v-5H90.33v5H76.51c-.73-2.88-4.15-5-8.38-5s-7.65,2.12-8.39,5H42.37L0,99H39.75l3.67-6.67H74.76l4,6.67H99.89l8.64,17H91.38l-9.67,10.84Zm14.31-84v-3H116v3Zm-30.46,0c.81-1.71,3.35-3,6.26-3s5.44,1.29,6.26,3ZM106.77,118l-1.29,2.54H90L92.28,118ZM40.5,93.53,38.57,97H4.33l3-3.51ZM28.19,76l5.33,10.72H48.93L52.7,83h63.59l-5.09,4.67H97.58l-7,9.38H79.9l-4-6.67H42.24L41,92.53H8.17L22.25,76ZM146.8,69.85,139.63,76l-7.08-7.88L117.39,82H52.29l-3.78,3.77H34.14L28.81,75H23.1L43.29,51.37h87.77Zm11.47,39.82c-.89-.33-1.82-.65-2.76-1,0-.19,0-.4,0-.59,0-8-3.49-12.19-5.48-13.9l1.48-1.55C153.35,94,158.49,98.8,158.27,109.67Zm-19.92-3.19,10.32-10.82c1.64,1.38,4.84,5,4.85,12.45A39.25,39.25,0,0,0,138.35,106.48Zm27.72,8.84v9.82l-4.8,1.09-6.5-7.94h-34l-7.21-4.42-5.56-3.4L101.12,97h-9.3l6.26-8.38h13.51L132.48,69.5l7,7.86,7.91-6.75L158,83l-25.64,26.89,3.4-.89C145.93,106.34,158.95,111.72,166.07,115.32Zm1,16V115.84c1.79.93,3.11,1.7,3.76,2.09v13.44Zm-22,0V125H154l4,6.33Zm-15.23,0V125H144v6.33Zm-15.23,0V125h14.23v6.33Zm-7.63,0,3.7-6.33h2.93v6.33Zm-18,0L92,128.7h10.49L107.89,118h3.9l-3-5.87,11.63,7.12h33.85l6.6,8,5.18-1.18v5.21h-5.69l-5.3-8.33H109.51l-4.88,8.33Zm-7.47,0,2-3.41,5.7-6.38H105l-3.08,6.12H91.64l-4.25,3.67ZM114.68,112a5.18,5.18,0,1,0-2.29-4.3A5.18,5.18,0,0,0,114.68,112Zm2.9-1.11a3.19,3.19,0,1,1,3.19-3.19A3.19,3.19,0,0,1,117.58,110.85Zm1.74-18,8.45,9.42L140.71,88.8,133,80.54Zm18-6.11-2.71,2.72L130,84.54l2.9-2.6Zm-.69,4.84-1.33-1.4,2.71-2.71,1.27,1.36Zm-15.95,1.34,8.55-7.67,6.71,7-8.19,8.5Zm-9.34-1.64a5.19,5.19,0,1,0,5.19,5.19A5.2,5.2,0,0,0,111.39,91.24Zm0,2a3.19,3.19,0,1,1-3.19,3.19A3.19,3.19,0,0,1,111.39,93.24Zm-9.1-23.45,7.71-9H90.24l-7.71,9Zm-15.41-2,4.28-5h14.5l-4.29,5Zm-8.53,2,7.72-9H66.31l-7.72,9Zm-15.41-2,4.29-5H81.72l-4.29,5Zm-8.53,2,7.72-9H42.37l-7.71,9ZM39,67.79l4.29-5H57.78l-4.29,5Z"/></g><g id="wing-2" data-name="wing"><g id="colors-4" data-name="colors"><path class="cls-1" d="M222.51,107.66A3.39,3.39,0,1,1,225.9,111,3.39,3.39,0,0,1,222.51,107.66Zm6.19-11.23a3.39,3.39,0,1,1,3.39,3.39A3.4,3.4,0,0,1,228.7,96.43Z"/><path class="cls-3" d="M177.21,125.91l5.3,1.21,6.58-8H223l12.19-7.46L232,117.84h3.7l5.38,10.66h10.44l3.56,3.07H238.74l-4.88-8.33H188.51l-5.3,8.33h-6Zm12.55-17.8c0-7.37,3.09-11.06,4.92-12.6l.14-.12,10.83,11.36-.55-.07A38.73,38.73,0,0,0,190,108.3l-.25.07Zm15.65-21,3,3-1.61,1.69-2.93-3Zm5.12-5.48,3.2,2.87-4.91,5.18-3-3Zm80.33,1.13,3.77,3.77h15.2l5.33-10.72h6.16l14.42,16.89H302.31l-1.19-2.16H267.69l-4,6.67H252.8l-7-9.38H232.2l-5.53-5.07Z"/><path class="cls-5" d="M177.21,115.19l.11-.06c7-3.52,20.17-9,30.47-6.33l2.72.71L185.23,83,196,70.32l7.91,6.75L211,69.21l21,19.24H245.5l6.56,8.78h-9.58l-6.8,13.37L230.08,114l-7.26,4.45h-34l-6.52,8-5.08-1.15ZM203,88.79l12.66,13.14,8.17-9.11-13.37-12Zm27.84,18.86a5,5,0,1,0-2.2,4.13A5,5,0,0,0,230.89,107.66Zm6.19-11.23a5,5,0,1,0-5,5A5,5,0,0,0,237.08,96.43ZM212.33,51.17h88l20.53,24.07h-6L309.47,86H294.89l-3.78-3.77H226L210.95,68.36l-7.08,7.87-7.47-6.37ZM233.92,61l7.37,8.6h19.23L253.15,61Zm23.93,0,7.38,8.6h19.23L277.08,61Zm23.94,0,7.38,8.6h19.22L301,61Zm-27.31,60.39,5.76,6.45,2.14,3.74H256l-4.25-3.67H241.46l-3.28-6.52Zm81.78-28.05,3.33,3.91H304.79l-2.15-3.91Z"/><path class="cls-4" d="M172.45,117.81l.1-.06c.64-.38,2-1.17,3.77-2.1l.29-.15v16.06h-4.16ZM185,109c0-10.63,5.23-15.31,6.83-16.49l.14-.1,1.75,1.83-.16.14c-2,1.74-5.41,5.83-5.41,13.75,0,.19,0,.39,0,.58v.15l-.14,0c-.94.31-1.87.63-2.75,1l-.26.1S185,109.22,185,109Zm4.39,15.84h9.25v6.73H185.11Zm9.85,0h14.63v6.73H199.24Zm14.95-39.91L223,92.86,215.69,101l-8.47-8.79Zm.28,39.91H229.1v6.73H214.47Zm12.81-78.67h24.07v3.4H227.28Zm2.42,78.67h3.24l3.93,6.73H229.7Zm21.59-7,2.64,2.94H237.88l-1.49-2.94Zm1.12-55.25L257,68H242l-4.63-5.4Zm23.93,0L281,68H266l-4.63-5.4Zm-7.43-13.31c.88-1.83,3.53-3.11,6.44-3.11s5.57,1.28,6.44,3.11l.14.29H268.77Zm31.37,13.31,4.63,5.4h-15l-4.63-5.4Z"/><path class="cls-2" d="M185.43,104.05a23.35,23.35,0,0,1,.8-3.22l1.12-2.73a18,18,0,0,1,1.5-2.49,3.57,3.57,0,0,0,2.24,1.6,17.33,17.33,0,0,0-2.47,6.16C187.86,102.8,186.33,103.53,185.43,104.05Zm-8.82,16.86c-1.34,1.61-3.57-.67-4.16-1.33v7.83c1.07-1.31,3.47-1,4.16-.87Zm20.74,3.92v6.73h1.29v-6.73Zm30.37,0v6.73h1.38v-6.73ZM221.56,93l-5.22,7.3,6.7-7.47-8.84-7.93-.66.7Zm-9.07,31.8v6.73h1.38v-6.73Zm72.78-62.25L286.48,64h13.16l.76-1.28-.11-.13ZM247.81,46.17h-6v3.4h6ZM235,49.57v-3.4h-3.33v3.4Zm2.42,13L238.6,64h12.87l.83-1.41Zm38.7-16.38a1.09,1.09,0,0,0,.31,1.79c1.48,1,3.77.7,4.87.48A7.55,7.55,0,0,0,276.08,46.21ZM261.33,62.59,262.54,64h13l.81-1.38,0,0Z"/><path class="cls-3" d="M207.31,107.83l3.84,2.05s-11.5-1.39-19.17,3.61-8.83,5.83-9.67,4.67-5,2.29-5.33,5.33l.17-6.67S193.31,109.67,207.31,107.83Z"/><polygon class="cls-3" points="212.42 51.37 212.42 54.92 189.1 83.17 211.14 109.89 184.6 83.17 211.14 51.17 212.42 51.37"/><polygon class="cls-7" points="213.47 66.5 227.22 78.83 235.48 78.83 233.31 76.33 227.72 76.33 216.72 66.5 213.47 66.5"/><polygon class="cls-7" points="215.06 61.58 228.81 73.92 237.07 73.92 234.89 71.42 229.31 71.42 218.31 61.58 215.06 61.58"/><polygon class="cls-7" points="295.47 83.17 291.66 78.83 310.35 78.83 308.35 83.17 295.47 83.17"/></g><path id="lineart-4" data-name="lineart" d="M261.77,126.88,252.1,116H235l8.64-17h21.13l4-6.67h31.34L303.73,99h39.75L301.11,49.37H283.74c-.74-2.88-4.15-5-8.39-5s-7.65,2.12-8.38,5H253.15v-5H225.48v5h-14L182.8,83.07l7.77,8.14c-2.27,1.75-7.39,6.9-7.39,17.77,0,.47,0,1,0,1.46a80.16,80.16,0,0,0-12.1,6.09l-.47.29v16.55h94.81ZM227.48,49.37v-3h23.67v3Zm41.61,0c.82-1.71,3.35-3,6.26-3s5.45,1.29,6.26,3ZM251.2,118l2.28,2.54H238L236.71,118Zm85-24.51,3,3.51H304.91L303,93.53ZM321.23,76l14.08,16.49H302.43l-1.19-2.16H267.58l-4,6.67H252.9l-7-9.38H232.28L227.19,83h63.59l3.77,3.77H310L315.29,76ZM212.42,51.37h87.77L320.38,75h-5.71l-5.33,10.72H295L291.19,82h-65.1L210.93,68.08,203.85,76l-7.17-6.11ZM192,92.67l1.48,1.55c-2,1.71-5.48,5.86-5.48,13.9,0,.19,0,.4,0,.59-.94.31-1.87.63-2.76,1C185,98.8,190.13,94,192,92.67Zm-2,15.44c0-7.42,3.21-11.07,4.85-12.45l10.32,10.82A39.25,39.25,0,0,0,190,108.11Zm17.78.89,3.4.89L185.5,83,196,70.61,204,77.36l7-7.86,20.89,19.16H245.4L251.66,97h-9.3l-6.83,13.43-5.56,3.4-7.21,4.42H188.71l-6.5,7.94-4.8-1.09v-9.82C184.53,111.72,197.55,106.34,207.74,109Zm-35.09,22.37V117.93c.65-.39,2-1.16,3.76-2.09v15.53Zm12.82,0,4-6.33h8.94v6.33Zm14,0V125h14.23v6.33Zm15.23,0V125H228.9v6.33Zm15.23,0V125h2.93l3.7,6.33Zm9,0L234,123H188.4l-5.3,8.33h-5.69v-5.21l5.18,1.18,6.6-8H223l11.63-7.12-3,5.87h3.9L241,128.7h10.49l3.1,2.67Zm17.24,0-4.25-3.67H241.58l-3.08-6.12h15.88l5.7,6.38,2,3.41Zm-25-23.71a5.2,5.2,0,1,0-2.29,4.3A5.18,5.18,0,0,0,231.09,107.66Zm-8.38,0a3.19,3.19,0,1,1,3.19,3.19A3.19,3.19,0,0,1,222.71,107.66ZM210.49,80.54l-7.72,8.26,12.94,13.43,8.45-9.42Zm.06,1.4,2.9,2.6-4.63,4.88-2.71-2.72Zm-6.4,6.85,1.27-1.36,2.71,2.71-1.33,1.4Zm11.53,12-8.19-8.5,6.71-7,8.55,7.67Zm11.22-4.33a5.19,5.19,0,1,0,5.19-5.19A5.18,5.18,0,0,0,226.9,96.43Zm8.38,0a3.19,3.19,0,1,1-3.19-3.19A3.19,3.19,0,0,1,235.28,96.43ZM261,69.79l-7.71-9H233.48l7.71,9Zm-18.84-2-4.29-5h14.5l4.28,5Zm42.78,2-7.72-9H257.41l7.72,9Zm-18.84-2-4.29-5h14.49l4.29,5Zm42.77,2-7.71-9H281.35l7.72,9Zm-18.83-2-4.29-5h14.49l4.29,5Z"/></g><g id="cockpit"><path class="cls-6" d="M198.27,89.42l.28-.33a31.22,31.22,0,0,0,2.11-2.82l.06-.09h16.56l2.63,3.24Zm-74.69,0,2.63-3.24h16.56l.06.09a30.48,30.48,0,0,0,2.11,2.82l.28.33Z"/><path class="cls-3" d="M156,107.62l1.36-4.08,14.37,10.74,14.38-10.74,1.36,4.08L171.74,120.3Zm64.68-18.21-3.12-3.84H201.1l.19-.31a31.53,31.53,0,0,0,4.06-10.43l0-.16h8.48L210,63h-4.24l0-.17A35.63,35.63,0,0,0,201.55,50l-.16-.3h9.31l14.9,39.73Zm-102.8,0,14.9-39.73h9.31l-.17.3a35.61,35.61,0,0,0-4.18,12.81l0,.17h-4.24l-3.87,11.71h8.48l0,.16a31.54,31.54,0,0,0,4.06,10.44l.19.3H125.92l-3.12,3.84Zm65.28-63.17a41.24,41.24,0,0,0-11.43-1.33,40.58,40.58,0,0,0-11.41,1.33l-.33.11.08-.34a33.84,33.84,0,0,1,1.58-5.33c1.43-3.52,6.22-7.17,10-9.62l.11-.07.11.07c3.77,2.44,8.56,6.1,10,9.62A33.73,33.73,0,0,1,183.42,26l.08.34Z"/><path class="cls-4" d="M157.57,102.94,159,98.75l.19.07a40.47,40.47,0,0,0,12.59,2.34,40.49,40.49,0,0,0,12.59-2.34l.19-.07,1.39,4.19-14.18,10.6Zm31.12-6,.26-.14a33.46,33.46,0,0,0,7.75-5.7l.06-.06h12.64l-12.28,13.1ZM134.08,91h12.64l.06.06a33.18,33.18,0,0,0,7.75,5.7l.26.14-8.44,7.21Zm50.42-56.2a31.29,31.29,0,0,0-25.5,0l-.31.13,0-.33c.19-1.8.53-4.56,1.1-7.45l0-.11.11,0a39.24,39.24,0,0,1,11.79-1.47A39.39,39.39,0,0,1,183.53,27l.11,0,0,.11c.57,2.89.91,5.64,1.1,7.45l0,.33Z"/><path class="cls-2" d="M171.74,113.53l-14.17-10.59.93-2.8c1.11.62,7.54,4.09,13.24,4.14ZM206.92,91l-9.84,10.14-8.33-4.28-.06,0,8.44,7.21L209.41,91ZM172,25.55h-.27a46.34,46.34,0,0,0-9.94,1c-.94,2-1.2,6.12-1.27,7.73a32.26,32.26,0,0,1,11.21-2.12h.53A6,6,0,0,1,172,25.55ZM136.6,91h-2.53l12.28,13.1,8.44-7.21,0,0-8.31,4.27Z"/><path class="cls-5" d="M171.73,99.54c-12.3-.39-22.59-5.94-28.24-15.22l-.1-.17L146,82.57l-.31-.51-2.65,1.58-.1-.18a30.38,30.38,0,0,1-3.2-8.55l-.05-.24h2.6v-1.6h-10.5l2.8-8.51h7.7V63h-3l0-.23a34.21,34.21,0,0,1,2.74-9.59l.09-.2,2.35,1.41.31-.51-2.39-1.45.08-.16a32.25,32.25,0,0,1,58.35,0l.08.16-2.39,1.45.31.51,2.35-1.41.09.2a34.1,34.1,0,0,1,2.74,9.59l0,.23h-3v1.6h7.69l2.8,8.51h-10.5v1.6h2.6l-.05.24a30.37,30.37,0,0,1-3.2,8.55l-.1.18-2.65-1.58-.31.51,2.66,1.59-.11.17c-5.65,9.28-15.94,14.83-28.24,15.22ZM161.16,88.46a23.56,23.56,0,0,0,21.16,0l.15-.07,1.93,2.51.47-.37L183,88.13l.21-.11a22.81,22.81,0,0,0,12.32-20.64,24.72,24.72,0,0,0-12.75-22l-.21-.12,2.27-2.73-.46-.38L182,45l-.14-.07a20.79,20.79,0,0,0-20.31,0l-.14.07-2.35-2.83-.46.38,2.27,2.73-.21.12a24.72,24.72,0,0,0-12.75,22A22.82,22.82,0,0,0,160.25,88l.21.11-1.84,2.41.47.37L161,88.4Z"/><path class="cls-6" d="M195.67,44.47a22.11,22.11,0,0,1-4.57,6.39,24.85,24.85,0,0,0-7.65-6.61l1.4-1.69-.46-.38L182.91,44a24.1,24.1,0,0,0-22.34,0l-1.48-1.78-.46.38,1.4,1.68a24.77,24.77,0,0,0-7.25,6.1,21.77,21.77,0,0,1-4.35-6.52,32,32,0,0,1,47.25.64Z"/><polygon class="cls-5" points="141.44 52.4 134.07 52.4 117.89 89.42 131.84 48.53 143.19 48.53 141.44 52.4"/><polygon class="cls-5" points="202.04 52.4 209.41 52.4 225.6 89.42 211.64 48.53 200.29 48.53 202.04 52.4"/><path class="cls-8" d="M171.74,89.36c-12.86,0-22.2-9.24-22.2-22,0-13.18,9.75-23.5,22.2-23.5s22.21,10.32,22.21,23.5C193.95,80.11,184.61,89.36,171.74,89.36Z"/><path class="cls-9" d="M171.74,87.14c-11.61,0-20-8.34-20-19.84,0-11.89,8.8-21.21,20-21.21s20,9.31,20,21.21C191.78,78.79,183.35,87.14,171.74,87.14Z"/><path class="cls-10" d="M171.74,64.71c-8.81,0-15.2,6.25-15.2-1.51,0-8,6.68-14.33,15.2-14.33s15.21,6.29,15.21,14.33C186.95,71,180.55,64.71,171.74,64.71Z"/><path class="cls-5" d="M172.76,11.4c-.4-.26,3.94,8.94,3.13,13.75l4.19.39S181.38,17,172.76,11.4Z"/><path class="cls-6" d="M171.3,11.4c.4-.26-3.94,8.94-3.12,13.75l-4.19.39S162.67,17,171.3,11.4Z"/><path id="lienart" d="M195.75,67.38A25.06,25.06,0,0,0,182.9,45.23l2.24-2.7-.77-.64L182,44.76a21,21,0,0,0-20.49,0l-2.38-2.86-.77.64,2.24,2.7a25.06,25.06,0,0,0-12.85,22.14A22.89,22.89,0,0,0,160.16,88.2l-1.82,2.38.79.61,2-2.54a23.73,23.73,0,0,0,21.33,0l1.95,2.54.79-.61-1.83-2.38A22.89,22.89,0,0,0,195.75,67.38Zm-24,21.78c-13,0-22-9.34-22-21.78,0-12.85,9.35-23.3,22-23.3s22,10.45,22,23.3C193.75,79.81,184.78,89.15,171.74,89.15Zm40.21-41.27H200.53a34.67,34.67,0,0,0-13.86-12.3c-.25-2.79-1.07-10.44-3.16-15.58-1.78-4.41-7.93-8.77-11.77-11.16C167.9,11.23,161.77,15.6,160,20c-2.09,5.14-2.91,12.79-3.16,15.58A34.67,34.67,0,0,0,143,47.88H131.54L115.29,91.21H131.8l14.42,15.38,10.17-8.69.84.37-3.33,10,17.84,14.37,17.85-14.37-3.33-10,.84-.37,10.17,8.69,14.42-15.38H228.2ZM161.83,20.76c1.43-3.52,6.31-7.19,9.91-9.53,3.61,2.34,8.49,6,9.92,9.53a34,34,0,0,1,1.57,5.3c-5.52-1.78-17.38-1.8-23,0A34,34,0,0,1,161.83,20.76ZM160,27.21c5.49-1.95,17.94-1.95,23.45,0,.56,2.84.91,5.61,1.1,7.43a31.49,31.49,0,0,0-25.65,0C159.11,32.81,159.46,30,160,27.21Zm-41.84,62,14.75-39.33h8.83a35.82,35.82,0,0,0-4.2,12.88h-4.21l-4,12.11h8.59A31.74,31.74,0,0,0,142,85.38h-16.2l-3.12,3.84Zm5.82,0,2.31-2.84h16.36a31.35,31.35,0,0,0,2.12,2.84Zm22.37,14.62L134.54,91.21h12.1a33.41,33.41,0,0,0,7.8,5.73Zm40.88,3.72L171.74,120l-15.5-12.49,1.23-3.69,14.27,10.66L186,103.87Zm-29.44-4.69L159.09,99a40.73,40.73,0,0,0,12.65,2.35A40.73,40.73,0,0,0,184.4,99l1.28,3.86-13.94,10.42Zm13.93-3.52c-12.34-.39-22.57-6.08-28.07-15.12l2.66-1.59-.52-.85-2.64,1.58A30,30,0,0,1,140,74.88h2.55v-2H132.12l2.67-8.11h7.75v-2h-2.95a33.86,33.86,0,0,1,2.72-9.53l2.33,1.4.52-.85-2.41-1.46a32,32,0,0,1,58,0l-2.41,1.46.52.85,2.33-1.4a34,34,0,0,1,2.72,9.53h-3v2h7.75l2.67,8.11H200.95v2h2.55a30.17,30.17,0,0,1-3.18,8.49l-2.64-1.58-.52.85,2.66,1.59C194.32,93.27,184.09,99,171.74,99.35Zm25.38,4.49L189,96.95a33.61,33.61,0,0,0,7.8-5.73h12.1Zm1.58-14.62a31.37,31.37,0,0,0,2.12-2.84h16.36l2.31,2.84Zm19-3.84h-16.2a31.74,31.74,0,0,0,4.09-10.5h8.59l-4-12.11h-4.21a35.86,35.86,0,0,0-4.2-12.88h8.83l14.75,39.33h-4.53Z"/></g><g id="weapon-3" data-name="weapon"><g id="colors-5" data-name="colors"><path class="cls-5" d="M156.16,146.57a38.77,38.77,0,0,1-4.41-5.18l-.08-.12,6.5-8.71V99.79l6.27,6.27v24h-1.5v9.13l-6.62,7.58Zm24.37-7.43V130H179v-24l6.28-6.27v32.79l6.5,8.71-.08.12a38,38,0,0,1-4.42,5.18l-.15.15ZM166,130.51v-1.4h11.4v1.4Zm-7.87-31.58v-8.3l6.27-3.79V105.2ZM179,86.85l6.28,3.79v8.3L179,105.2Z"/><path class="cls-3" d="M150.57,139.6a27.33,27.33,0,0,1-2.93-6.83l0-.09L151,128V114.38h-4.7l0-.21c.71-9.12,7.21-11.52,10-12.13l.24-.05V132l-5.84,7.82ZM186.92,132V102l.24.05c2.76.61,9.25,3,10,12.13l0,.21h-4.71V128l3.43,4.64,0,.09a27.47,27.47,0,0,1-2.94,6.83l-.15.25ZM166,128.51V117.23h11.4v11.28Z"/><path class="cls-4" d="M179.54,151.26v-2.88h-.6v2.88h-3.15v-2.88h-.6v2.88h-6.9v-2.88h-.6v2.88h-3.15v-2.88h-.6v2.88h-2.42l-.05,0c-1.62-1.27-3.11-2.56-4.57-3.94l-.14-.13,6.7-7.66H180l6.7,7.66-.14.13c-1.46,1.38-3,2.67-4.57,3.94l-.05,0Zm-15-13.38v-6.27H166v-.5h11.4v.5h1.5v6.27Zm28.5-10V115h4.14l0,2c0,5.36,0,10-1,14.52l-.1.43Zm-45.72,3.68c-1-4.49-1-9.06-1-14.36v-1.34c0-.22,0-.43,0-.64V115h4.12v12.86l-3,4.1ZM166,116.63V74.86h2.75v-.6H166V72h2.75v-.6H166V68h11.4v3.4h-2.75V72h2.75v2.28h-2.75v.6h2.75v41.77Zm-2.73-50.25a3,3,0,1,1,0-6h16.87a3,3,0,1,1,0,6Z"/><path class="cls-2" d="M183.26,61.75a2.37,2.37,0,0,1-2.37,2.37H163a2.37,2.37,0,0,1,0-4.74h17.91A2.37,2.37,0,0,1,183.26,61.75ZM171.51,70a1.63,1.63,0,0,0-1.62,1.63v45.16h3.25V71.62A1.63,1.63,0,0,0,171.51,70Zm-1.62,68.5h3.25v-8h-3.25Zm-24.31-24.19c-1.43,3,1,18.11,1,18.11l1.55-1.55V114.56h-2.56Zm52.2,0v.25h-2.56v16.31l1.55,1.55S199.21,117.26,197.77,114.31Z"/><polygon class="cls-2" points="161.32 151.53 161.59 151.06 163.74 148.18 179.74 148.18 181.9 151.06 182.23 151.72 161.32 151.53"/><rect class="cls-2" x="169.29" y="141.49" width="4.76" height="4.76"/><rect class="cls-2" x="164.96" y="142.53" width="2.68" height="2.68"/><rect class="cls-2" x="175.84" y="142.53" width="2.68" height="2.68"/><circle class="cls-6" cx="152.76" cy="108.25" r="1.79"/><circle class="cls-6" cx="190.72" cy="108.25" r="1.79"/><rect class="cls-6" x="169.89" y="116.79" width="3.42" height="11.84"/></g><path id="lineart-5" data-name="lineart" d="M199,117v-1.19c0-12.19-8.94-15-11.87-15.6V89.62l-7.88-4.75V68.18h.94a4.81,4.81,0,1,0,0-9.62H163.31a4.81,4.81,0,1,0,0,9.62h.93V84.87l-7.87,4.75v10.59c-2.93.59-11.88,3.41-11.88,15.6V117c0,13,0,23.29,16.14,35.85l.27.21h21.69l.27-.21C199,140.29,199,130,199,117ZM185.12,90.75v8.1l-5.88,5.87V87.2ZM163.31,66.18a2.81,2.81,0,1,1,0-5.62h16.87a2.81,2.81,0,1,1,0,5.62H163.31Zm2.93,7.88V72.18H169v-1h-2.75v-3h11v3h-2.75v1h2.75v1.88h-2.75v1h2.75v41.37h-11V75.06H169v-1Zm11,43.37v10.88h-11V117.43Zm-5.5,11.88h5.5v1h-11v-1Zm0,2h5.5v.5h1.5v5.87h-14v-5.87h1.5v-.5ZM158.37,90.75l5.87-3.55v17.52l-5.87-5.87ZM146.49,117v-1.19c0-.22,0-.42,0-.63h3.73v12.59l-2.72,3.7C146.48,127,146.49,122.28,146.49,117Zm1.35,15.72,3.4-4.62V114.18h-4.68c.7-9,7.18-11.37,9.81-11.95V132l-5.62,7.53A27.24,27.24,0,0,1,147.84,132.72Zm4.08,8.56,6.45-8.64V100.27l5.87,5.87v23.67h-1.5v9.26l-6.43,7.36A38.74,38.74,0,0,1,151.92,141.28Zm30,9.78h-2.16v-2.88h-1v2.88H176v-2.88h-1v2.88h-6.5v-2.88h-1v2.88h-2.75v-2.88h-1v2.88h-2.15c-1.71-1.34-3.21-2.65-4.56-3.93l6.51-7.45h16.41l6.51,7.45C185.11,148.41,183.61,149.72,181.9,151.06Zm5.27-4.63-6.43-7.36v-9.26h-1.5V106.14l5.88-5.87v32.37l6.45,8.64A38.08,38.08,0,0,1,187.17,146.43Zm5.56-6.93L187.12,132V102.23c2.63.58,9.1,2.93,9.81,11.95h-4.69V128.1l3.41,4.62A27.14,27.14,0,0,1,192.73,139.5Zm3.24-8-2.73-3.7V115.18H197c0,.21,0,.41,0,.63V117C197,122.28,197,127,196,131.47Z"/></g></g></g></svg>